<svg width="250.09" height="250.09" viewBox="0 0 250.09 250.09" xmlns="http://www.w3.org/2000/svg" xmlns:xlink="http://www.w3.org/1999/xlink" id="Layer_1" xml:space="preserve" overflow="hidden"><g><path d="M1.2 125.05C1.2 56.64 56.64 1.2 125.05 1.2 193.45 1.2 248.9 56.65 248.9 125.05 248.9 193.45 193.45 248.9 125.05 248.9 56.64 248.9 1.2 193.45 1.2 125.05" fill="#FFFFFF"/><path d="M1.2 125.05C1.2 56.64 56.64 1.2 125.05 1.2 193.45 1.2 248.9 56.65 248.9 125.05 248.9 193.45 193.45 248.9 125.05 248.9 56.64 248.9 1.2 193.45 1.2 125.05Z" stroke="#000000" stroke-width="2.2944" fill="none"/><path d="M125.05 9.84C61.43 9.84 9.86 61.41 9.86 125.02 9.86 188.63 61.43 240.2 125.04 240.2 188.65 240.2 240.22 188.63 240.22 125.02 240.23 61.41 188.66 9.84 125.05 9.84ZM124.93 215.79C74.82 215.79 34.19 175.17 34.19 125.05 34.19 74.94 74.81 34.31 124.93 34.31 175.05 34.31 215.67 74.93 215.67 125.05 215.67 175.16 175.05 215.79 124.93 215.79Z" fill="#CC362D"/><path d="M9.86 125.02C9.86 61.41 61.43 9.84 125.05 9.84 188.67 9.84 240.23 61.41 240.23 125.02 240.23 188.63 188.66 240.2 125.05 240.2 61.44 240.2 9.86 188.63 9.86 125.02Z" stroke="#000000" stroke-width="1.1472" stroke-miterlimit="3.864" fill="none"/><path d="M37.94 125.05C37.94 77 76.89 38.05 124.94 38.05 172.99 38.05 211.94 77 211.94 125.05 211.94 173.1 172.99 212.05 124.94 212.05 76.89 212.05 37.94 173.1 37.94 125.05" fill="#0064B1"/><g><path d="M180.41 109.87C179.58 120.25 178.46 130.3 176.11 139.71 170.61 169.59 145.79 196.29 125.54 206.9 104.09 196.05 79.66 169.55 74.16 139.67 71.81 130.26 70.5 120.23 69.63 109.86L180.41 109.86Z" fill="#F58025" fill-rule="evenodd" clip-rule="evenodd"/><path d="M178.26 65.71C173.02 70.7 164.18 74.06 152.96 74.06 140.48 74.06 129.59 69.9 124.94 63.97 120.29 69.91 109.57 74.06 97.09 74.06 85.87 74.06 77.03 70.7 71.79 65.71 68.53 77.06 67.89 93.35 69.31 109.87L180.9 109.87C182.24 93.35 181.52 77.05 178.26 65.71Z" fill="#FFFFFF" fill-rule="evenodd" clip-rule="evenodd"/></g><path d="M125.54 206.91C145.79 196.3 170.61 169.59 176.11 139.72 182.16 115.46 183.54 84.09 178.25 65.71 173.01 70.7 164.17 74.06 152.95 74.06 140.47 74.06 129.58 69.9 124.93 63.97 120.28 69.91 109.56 74.06 97.08 74.06 85.86 74.06 77.02 70.7 71.78 65.71 66.5 84.08 68.11 115.42 74.16 139.68 79.66 169.56 104.09 196.06 125.54 206.91ZM180.41 109.87 69.63 109.87 180.41 109.87Z" stroke="#000000" stroke-width="1.1472" stroke-miterlimit="3.864" fill="none"/><g><path d="M123.11 102.23 125.02 100.08 126.69 102.47 125.73 103.66 124.06 103.66 123.11 102.23ZM101.73 88.82 104.22 88.82 104.84 84.24 102.34 84.24 101.73 88.82ZM100.27 99.92 102.76 99.92 103.38 95.34 100.88 95.34 100.27 99.92ZM110.22 82.66 110.22 84.81 112.37 84.57 112.37 82.18 110.22 82.66ZM147.7 84.24 145.2 84.24 145.82 88.82 148.31 88.82 147.7 84.24ZM149.16 95.34 146.66 95.34 147.28 99.92 149.77 99.92 149.16 95.34Z" fill-rule="evenodd" clip-rule="evenodd"/><path d="M107.83 81.46 105.2 81.94 102.1 103.91 123.35 102.48M128.54 82.84C130.75 81.7 136.02 85.04 139.58 84.37M121.5 94.3C119.29 93.16 112.84 96.5 109.28 95.83M121.5 91.44C119.29 90.3 113.3 93.64 109.74 92.97M121.5 88.57C119.29 87.43 113.54 90.97 109.98 90.3M121.5 85.7C119.29 84.56 113.8 87.91 110.23 87.23M121.5 82.84C119.29 81.7 114.75 85.04 111.19 84.37M127.41 98.17 131.47 98.41 135.77 99.37 140.3 100.09 144.36 99.85 142.45 80.51 140.06 80.99 136 80.27 132.18 79.08 128.36 79.08 125.02 80.51 125.02 99.85 127.41 98.17ZM122.63 98.17 118.57 98.41 114.27 99.37 109.74 100.09 105.68 99.85 107.59 80.51 109.98 80.99 114.04 80.27 117.86 79.08 121.68 79.08 125.02 80.51 125.02 99.85 122.63 98.17ZM123.11 102.23 125.02 100.08 126.69 102.47 125.73 103.66 124.06 103.66 123.11 102.23ZM101.73 88.82 104.22 88.82 104.84 84.24 102.34 84.24 101.73 88.82ZM100.27 99.92 102.76 99.92 103.38 95.34 100.88 95.34 100.27 99.92ZM110.22 82.66 110.22 84.81 112.37 84.57 112.37 82.18 110.22 82.66ZM147.7 84.24 145.2 84.24 145.82 88.82 148.31 88.82 147.7 84.24ZM128.54 94.3C130.75 93.16 137.2 96.5 140.76 95.83M128.54 91.44C130.75 90.3 136.74 93.64 140.3 92.97M128.54 88.57C130.75 87.43 136.5 90.97 140.06 90.3M128.54 85.71C130.75 84.57 136.24 87.91 139.81 87.24M142.21 81.46 144.84 81.94 147.94 103.91 126.69 102.48M149.16 95.34 146.66 95.34 147.28 99.92 149.77 99.92 149.16 95.34Z" stroke="#000000" stroke-width="1.1472" stroke-miterlimit="3.864" fill="none"/><path d="M124.8 150.56 137.49 158.72 133.41 145.11 143.85 134.68 130.01 134.68 125.02 119.26 120.03 134.68 106.2 134.68 116.63 145.11 112.55 158.72Z" fill="#FFFFFF" fill-rule="evenodd" clip-rule="evenodd"/><path d="M124.8 150.56 137.49 158.72 133.41 145.11 143.85 134.68 130.01 134.68 125.02 119.26 120.03 134.68 106.2 134.68 116.63 145.11 112.55 158.72Z" stroke="#000000" stroke-width="1.1472" stroke-miterlimit="3.864" fill="none"/><path d="M93.03 113.45C92.55 115.12 93.62 115.19 93.51 116.32 93.4 117.4 92.62 117.86 92.55 118.95 92.5 119.9 93 120.39 93.03 121.34 93.08 123.55 91.42 124.45 90.88 126.59 90.51 128.06 89.16 126.9 90.16 130.41 91.12 133.75 89.55 129.28 88.97 128.74 87.54 127.42 90.64 130.41 90.4 133.52 90.32 134.58 89.95 135.12 89.68 136.15 89.49 136.89 88.52 137.71 89.2 138.06 89.61 138.27 90.18 137.64 90.39 138.06 91.58 140.45 90.91 141.26 90.87 143.31 90.85 144.43 89.51 146.1 90.63 146.18 91.13 146.21 91.65 145.36 91.82 145.7 93.01 148.09 93.51 148.94 93.97 151.19 94.34 153.02 93.34 154.45 94.45 155.96 95.51 157.41 97.61 156.56 98.51 158.11 100.18 160.97 99.23 162.41 100.42 162.65 100.95 162.76 101.27 161.51 101.61 161.93 102.57 163.12 103.38 163.5 104.48 164.56 105.14 165.2 105.63 166.99 106.15 166.23 106.47 165.77 106.15 165.36 106.15 164.8 106.15 164.32 109.02 166.95 112.12 167.9 113.43 168.3 112.45 171.32 113.79 171.01 114.72 170.79 114.42 169.63 114.98 168.86 115.84 167.69 116.4 166.29 117.85 166.47 118.96 166.62 119.25 167.55 120 168.38 120.9 169.38 120.57 171.25 121.91 171.25 125.49 171.25 123.1 171.49 127.16 171.01 128.61 170.84 127.63 168.49 128.83 167.67 129.63 167.12 130.34 166.25 131.22 166.95 132.41 167.91 132.8 168.43 133.85 169.34 134.5 169.91 134.79 171.23 135.52 170.77 136.02 170.46 135.75 169.87 135.99 169.34 136.66 167.91 137.45 167.18 138.86 166.47 140.05 165.87 142.05 164.34 142.2 165.75 142.44 167.9 143.63 163.36 146.97 162.17 147.53 161.97 147.29 162.88 147.69 163.13 148.95 163.9 148.08 160.78 148.89 159.55 149.72 158.28 150.47 157.74 151.75 156.92 152.7 156.32 153.66 156.59 154.38 155.73 155.16 154.8 154.25 153.83 154.38 152.63 154.6 150.61 154.93 149.45 155.81 147.62 156.29 146.64 156.89 146.26 157.24 145.23 157.7 143.91 157.07 143.03 157.24 141.65 157.42 140.21 157.48 139.5 158.19 138.07 158.4 137.65 159.74 137.95 159.38 137.59 158.66 136.87 159.14 136.4 157.95 133.29 157.31 131.62 159.62 128.99 159.15 128.04 158.02 125.77 158.4 127.64 157.95 127.32 155.43 125.53 155.92 122.77 155.8 119.68 155.78 119.12 155.83 118.8 155.8 118.25 155.73 117.12 155.29 116.52 155.32 115.38 155.35 114.52 155.13 113.77 155.8 113.23 156.54 112.63 157.29 113.39 158.19 113.71 159.88 114.3 159.86 115.38 161.77 116.58 162.05 116.76 162.17 116.22 162.49 116.1 163.44 115.76 163.97 116.78 164.64 117.53 165.49 118.51 165.79 119.34 165.83 120.63 165.87 121.67 164.79 122.38 165.35 123.26 165.6 123.65 165.96 123.67 166.3 123.98 167.77 125.3 166.91 127.09 167.97 128.75 169.64 131.38 165.89 134.73 167.97 134.24 168.38 134.15 169.06 133.1 168.93 133.76 168.69 134.95 169.58 135.92 169.65 137.34 169.73 139.12 169.89 140.25 169.17 141.87 168.72 142.91 167.76 143.15 167.5 144.26 167.19 145.56 168.21 146.27 168.21 147.6 168.22 149.63 167.99 150.98 166.78 152.61 165.99 153.67 164.75 153.58 164.15 154.76 163.56 155.93 164.19 156.83 163.91 158.1 163.56 159.73 163.43 160.82 162 161.92 158.9 164.31 155.56 163.81 157.46 164.55 157.82 164.69 158.09 164.59 158.42 164.79 159.48 165.45 157.75 166.67 156.99 167.65 155.76 169.24 154.36 169.32 152.69 170.52 152.25 170.84 154.49 170.71 154.36 171.24 154.12 172.2 153.67 173.26 152.69 174.11 151.32 175.3 149.8 174.32 148.16 175.06 147.06 175.57 146.64 176.24 145.53 176.73 143.88 177.46 142.8 177.83 140.99 177.68 139.37 177.55 138.61 175.26 137.17 176.01 136.28 176.47 135.56 177.16 135.74 178.16 135.93 179.23 137.31 178.84 138.37 179.12 140.18 179.59 141.27 179.54 143.14 179.6 143.88 179.62 145.45 178.72 145.05 179.6 143.86 182.23 142.42 182.7 140.99 183.66 139.55 184.62 142.42 185.33 143.61 187.24 144.6 188.82 142.66 187.72 138.84 187.48 135.26 187.26 133.22 185.8 130.49 183.42 128.94 182.07 128.82 181.51 127.15 179.36 126.52 178.55 125.55 179.58 124.52 179.6 123.31 179.62 122.56 178.97 121.42 179.36 120.04 179.83 120.05 181.19 119.03 182.23 116.62 184.67 114.93 186.04 111.63 187 109.21 187.71 107.57 188.67 105.18 187.48 103.58 186.68 108.16 185.47 107.57 183.9 107.12 182.71 105.73 182.98 104.94 181.99 104.34 181.24 103.77 180.8 103.75 179.84 103.7 177.87 106.14 180.55 108.76 179.36 110.37 178.63 113.06 179.7 113.06 177.93 113.06 176.92 112.48 176.32 111.63 175.78 110.01 174.75 109.01 177.56 107.09 177.69 105.38 177.81 104.33 177.5 102.79 176.74 101.54 176.12 101.22 175.12 99.92 174.59 98.61 174.06 97.59 174.75 96.34 174.11 94.99 173.42 94.43 173.15 93.71 171.24 93.44 170.54 95.19 171.01 95.38 170.29 95.69 169.08 93.51 169.62 92.51 168.86 90.97 167.68 89.02 166.64 89.64 164.8 89.78 164.41 90.45 164.09 90.12 163.84 89.17 163.12 86.78 162.87 85.58 161.21 84.92 160.3 84.66 159.68 84.39 158.58 84.03 157.13 84.72 156.14 84.15 154.76 83.48 153.11 81.84 153.01 81.04 151.42 80.04 149.41 80.24 147.9 80.56 145.69 80.67 144.93 81.65 144.24 81.04 143.78 80.09 143.06 79.59 142.18 79.13 140.91 78.46 139.07 78.28 137.66 79.13 135.9 79.42 135.29 79.5 134.79 80.09 134.47 80.5 134.24 81.36 134.7 81.28 134.23 81.04 132.8 79.85 132.08 80.32 128.98 80.76 126.09 82.93 125.43 83.19 122.77 83.32 121.38 82.59 120.54 82.95 119.19 83.43 117.4 84.38 115.85 86.05 115.61 86.57 115.54 86.56 116.19 87.01 116.33 88.14 116.68 88.12 114.76 89.16 114.18 90.54 113.44 93.18 112.94 93.03 113.45Z" stroke="#006838" stroke-width="2.2944" stroke-miterlimit="3.864" fill="#006838"/><path d="M130.27 180.3C133.71 180.3 134.08 182.91 135.79 182.91 136.36 182.91 136.94 182.34 136.94 181.76 136.94 180.04 134.42 179.67 133.85 179.1L133.12 179.08M134.65 178.33 135.8 178.33C137.33 178.33 138.67 179.67 140.96 179.67 143.25 179.67 144.97 179.67 145.92 178.14 145.35 181.01 142.48 183.11 140.76 183.87 142.09 185.2 142.67 186.92 144.58 187.5 143.24 187.88 142.29 188.27 141.33 188.27 135.98 188.27 128.73 182.73 127.01 179.29M135.13 170.26C134.17 170.26 133.86 170.51 132.9 170.51 132.9 170.89 132.26 171.4 132.26 171.4M133.7 168.35C132.74 168.35 132.43 168.61 131.47 168.61 131.47 168.99 130.83 169.5 130.83 169.5M126.69 171.71C128.09 168.14 129.3 166.49 131.4 166.49 132.74 166.49 136.94 173.94 136.94 175.27 136.94 178.71 131.21 180.04 128.92 180.04 128.35 180.04 127.12 179.91 126.93 179.34L127.2 179.28C129.87 177.75 131.23 173.13 135.05 173.13 136.39 173.13 136.94 173.93 136.94 175.07M118.34 180.3C114.9 180.3 114.54 182.91 112.82 182.91 112.25 182.91 111.67 182.34 111.67 181.76 111.67 180.04 114.18 179.67 114.76 179.1L115.49 179.08M113.96 178.33 112.81 178.33C111.28 178.33 109.94 179.67 107.65 179.67 105.36 179.67 103.64 179.67 102.69 178.14 103.26 181.01 106.13 183.11 107.85 183.87 106.51 185.2 105.94 186.92 104.03 187.5 105.37 187.88 106.32 188.27 107.28 188.27 112.63 188.27 119.89 182.73 121.6 179.29M113.48 170.26C114.44 170.26 114.75 170.51 115.71 170.51 115.71 170.89 116.35 171.4 116.35 171.4M114.91 168.35C115.87 168.35 116.18 168.61 117.14 168.61 117.14 168.99 117.78 169.5 117.78 169.5M121.92 171.71C120.52 168.14 119.31 166.49 117.21 166.49 115.87 166.49 111.67 173.94 111.67 175.27 111.67 178.71 117.4 180.04 119.69 180.04 120.26 180.04 121.49 179.91 121.68 179.34L121.41 179.28C118.74 177.75 117.38 173.13 113.56 173.13 112.22 173.13 111.67 173.93 111.67 175.07M122.87 171.23C121.68 171.23 120.96 172.85 120.96 175.53 120.96 178.39 121.68 180.06 124.54 179.83 128.35 179.51 127.88 178.64 127.64 175.53 127.64 175.53 127.64 171.47 126.69 171.23 125.28 170.88 124.78 171.23 122.87 171.23ZM88.43 119.7C89.19 117.79 89.58 117.22 91.11 116.26M85.57 122.94 85.57 118.17M85.87 126.59C86.06 124.49 88.82 124.29 90.16 123.52M84.04 134.02C83.28 131.73 83.66 130.39 84.04 128.1M86.52 138.99 86.52 137.65C86.52 135.74 88.24 134.41 88.24 132.49M84.04 143.76 84.04 142.04C84.04 140.13 82.7 139.75 81.75 138.22M87.1 147.2C86.91 146.63 87.1 146.24 87.1 145.67 87.1 144.14 89.2 143.57 89.2 142.04L89.39 142.04M86.33 154.08C85.76 150.64 84.23 149.5 82.7 147.2M91.12 155.71C89.93 153.8 90.73 152.55 90.73 150.64M94.16 162.48C92.63 159.8 89 159.8 88.05 158.28M99.32 164.96C98.37 162.48 97.79 161.33 96.46 160M100.27 168.21C98.55 167.26 97.22 167.26 95.5 167.26L93.78 167.26M103.14 171.46 101.8 171.46 97.98 172.41 97.79 172.41M106.58 171.65C104.1 171.27 102.76 167.83 102.57 166.49M111.16 174.89C108.11 175.27 107.53 174.89 106 174.89M112.61 172.43C110.7 171.95 110.02 170.51 109.25 169.36M87.06 116.08 89.45 113.69 93.27 112.97 93.51 116.31C93.27 117.74 92.26 119.5 91.87 119.88M83.47 123.52C83.28 123.14 82.71 122.18 82.71 121.61 82.71 118.17 83.82 116.89 86.11 115.37 86.68 116.71 87.3 117.04 87.78 118.24L88.26 120.87M85.19 125.24C85.95 120.28 89.77 121.42 93.02 119.13L93.02 122.57C91.87 126.01 90.73 127.34 88.82 129.25M81.57 134.71C81.38 134.14 80.4 131.7 80.38 131.13 80.14 125.64 82.32 125.82 82.9 122.95 84.62 125.24 86.35 125.4 87.07 129.93M83.48 135.66C84.24 131.08 87.3 129.45 89.77 128.68 89.96 129.64 90.92 131.93 90.92 133.26 90.92 134.41 89.64 137.86 89.45 138.05M80.79 144.34C79.26 142.81 78.69 141.09 78.69 138.8 78.69 136.12 79.84 135.75 79.84 133.45 82.13 135.17 85.15 135.18 86.52 139.94M84.23 144.72C85 139.75 87.06 139.24 90.64 137.33 90.64 139.62 91.6 139.96 91.6 141.87 91.6 143.4 90.15 147.01 89.96 147.78M84.04 154.46C83.66 154.46 80.14 151.94 80.14 149.27 80.14 146.79 81.18 144.91 81.56 142.81 84.23 145.49 86.35 144.73 87.78 150.46M87.54 154.52C87.35 153.95 87.38 152.54 87.48 151.98 88.5 146.17 91.3 148.54 91.87 145.11 93.02 148.55 93.27 148.18 94.22 151.43 94.22 151.43 95.17 154.29 93.97 156.38M93.27 159.05C92.61 155.15 88.26 153.56 84.2 154.75 84.01 155.71 84.68 157.42 84.68 158.57 84.68 161.82 86.83 162.63 91.13 164.3M94.73 164.01C93.97 162.86 93.2 161.72 93.2 160.19 93.2 158.66 94.35 157.14 93.2 155.99 97.56 156.2 99.47 157.39 100.66 163.12M100.43 175.29 96.13 174.33C94.7 173.62 95.11 172.79 93.59 171.26 94.35 170.88 94.74 170.5 95.5 170.3M100.66 169.74C99.13 170.5 98.75 170.69 97.41 170.69 94.16 170.69 89.96 167.25 89.39 164.77 92.26 165.34 93.21 164.01 95.5 164.01 97.79 164.01 98.37 165.35 100.27 165.92M105.62 172.22C103.33 171.84 102.76 170.69 100.85 170.31 100.85 169.16 99.9 168.4 99.7 167.26L101.39 161.69C102.92 162.45 106.16 165.56 106.16 167.66L106 166.88M111.89 175.53C110.36 176.29 107.91 177.95 106.38 177.95 103.51 177.95 100.65 175.47 99.7 174.13 103.71 174.13 104.28 172.03 108.1 172.03M113.64 170.69C112.3 167.06 110.69 166.69 106.19 164.77L106.19 168.59C106.19 171.84 109.21 172.76 111.89 174.1M160.18 119.7C159.42 117.79 159.03 117.22 157.51 116.26M163.04 122.94 163.04 118.17M162.75 126.59C162.56 124.49 159.8 124.29 158.46 123.52M164.57 134.02C165.33 131.73 164.95 130.39 164.57 128.1M162.09 138.99 162.09 137.65C162.09 135.74 160.37 134.41 160.37 132.49M164.57 143.76 164.57 142.04C164.57 140.13 165.91 139.75 166.86 138.22M161.52 147.2C161.71 146.63 161.52 146.24 161.52 145.67 161.52 144.14 159.42 143.57 159.42 142.04L159.23 142.04M162.28 154.08C162.85 150.64 164.38 149.5 165.91 147.2M157.49 155.71C158.68 153.8 157.88 152.55 157.88 150.64M154.45 162.48C155.98 159.8 159.61 159.8 160.56 158.28M149.29 164.96C150.25 162.48 150.82 161.33 152.16 160M148.34 168.21C150.06 167.26 151.4 167.26 153.12 167.26L154.84 167.26M145.47 171.46 146.81 171.46 150.63 172.41 150.82 172.41M142.04 171.65C144.52 171.27 145.86 167.83 146.05 166.49M137.45 174.89C140.5 175.27 141.08 174.89 142.61 174.89M136 172.43C137.91 171.95 138.6 170.51 139.36 169.36M161.55 116.08 159.16 113.69 155.34 112.97 155.1 116.31C155.34 117.74 156.35 119.5 156.74 119.88M165.14 123.52C165.33 123.14 165.9 122.18 165.9 121.61 165.9 118.17 164.79 116.89 162.5 115.37 161.93 116.71 161.31 117.04 160.83 118.24L160.35 120.87M163.42 125.24C162.66 120.28 158.84 121.42 155.59 119.13L155.59 122.57C156.73 126.01 157.88 127.34 159.79 129.25M167.04 134.71C167.23 134.14 168.21 131.7 168.23 131.13 168.47 125.64 166.29 125.82 165.71 122.95 163.99 125.24 162.26 125.4 161.54 129.93M165.13 135.66C164.36 131.08 161.31 129.45 158.84 128.68 158.65 129.64 157.7 131.93 157.7 133.26 157.7 134.41 158.97 137.86 159.17 138.05M167.82 144.34C169.35 142.81 169.92 141.09 169.92 138.8 169.92 136.12 168.78 135.75 168.78 133.45 166.49 135.17 163.47 135.18 162.09 139.94M164.38 144.72C163.62 139.75 161.55 139.24 157.97 137.33 157.97 139.62 157.02 139.96 157.02 141.87 157.02 143.4 158.46 147.01 158.65 147.78M164.57 154.46C164.95 154.46 168.47 151.94 168.47 149.27 168.47 146.79 167.43 144.91 167.05 142.81 164.37 145.49 162.26 144.73 160.83 150.46M161.08 154.52C161.27 153.95 161.24 152.54 161.14 151.98 160.12 146.17 157.32 148.54 156.75 145.11 155.61 148.55 155.35 148.18 154.4 151.43 154.4 151.43 153.44 154.29 154.65 156.38M155.34 159.05C156 155.15 160.35 153.56 164.41 154.75 164.6 155.71 163.93 157.42 163.93 158.57 163.93 161.82 161.78 162.63 157.48 164.3M153.88 164.01C154.64 162.86 155.41 161.72 155.41 160.19 155.41 158.66 154.26 157.14 155.41 155.99 151.05 156.2 149.14 157.39 147.95 163.12M148.18 175.29 152.48 174.33C153.91 173.62 153.5 172.79 155.02 171.26 154.25 170.88 153.87 170.5 153.11 170.3M147.96 169.74C149.49 170.5 149.87 170.69 151.21 170.69 154.46 170.69 158.66 167.25 159.23 164.77 156.36 165.34 155.41 164.01 153.12 164.01 150.83 164.01 150.25 165.35 148.34 165.92M142.99 172.22C145.28 171.84 145.85 170.69 147.76 170.31 147.76 169.16 148.71 168.4 148.91 167.26L147.23 161.69C145.7 162.45 142.45 165.56 142.45 167.66L142.61 166.88M136.72 175.53C138.25 176.29 140.7 177.95 142.23 177.95 145.1 177.95 147.96 175.47 148.92 174.13 144.91 174.13 144.33 172.03 140.52 172.03M134.97 170.69C136.31 167.06 137.92 166.69 142.42 164.77L142.42 168.59C142.42 171.84 139.4 172.76 136.72 174.1" stroke="#000000" stroke-width="0.5726" stroke-miterlimit="3.864" fill="none"/></g><path d="M218.23 169.96 214.47 172.38 215.68 168.35 212.59 165.26 216.69 165.26 218.17 160.69 219.64 165.26 223.75 165.26 220.65 168.35 221.86 172.38Z" fill="#FFFFFF" fill-rule="evenodd" clip-rule="evenodd"/><path d="M30.86 169.96 34.62 172.38 33.41 168.35 36.5 165.26 32.4 165.26 30.92 160.69 29.44 165.26 25.34 165.26 28.44 168.35 27.23 172.38Z" fill="#FFFFFF" fill-rule="evenodd" clip-rule="evenodd"/><path d="M80.3 179.47 80.09 179.7C80.05 179.69 79.98 179.67 79.89 179.65 79.71 179.61 79.54 179.58 79.37 179.56 78.95 179.95 78.3 180.62 77.42 181.58L76.71 182.36C76.33 182.78 75.77 183.4 75.05 184.22 74.65 184.67 74.41 184.98 74.33 185.13 74.31 185.17 74.3 185.2 74.31 185.23 74.31 185.28 74.33 185.33 74.37 185.39 74.41 185.45 74.58 185.66 74.88 186.02L74.53 186.4 72.85 184.79C72.65 184.61 72.26 184.27 71.68 183.78 71.26 183.42 70.94 183.13 70.69 182.91 70.13 182.4 69.71 181.96 69.44 181.58 69.17 181.2 68.97 180.83 68.86 180.45 68.75 180.07 68.7 179.7 68.72 179.34 68.74 178.97 68.81 178.64 68.94 178.32 69.16 177.79 69.48 177.28 69.92 176.81 70.48 176.21 71.08 175.77 71.74 175.49 72.4 175.22 73.07 175.1 73.74 175.13 74.42 175.17 75.05 175.32 75.63 175.59 76.21 175.86 76.82 176.29 77.46 176.87L78.83 178.2 80.3 179.47ZM77.86 178.31C77.61 178 77.35 177.72 77.08 177.47 76.66 177.09 76.25 176.8 75.85 176.59 75.55 176.44 75.25 176.35 74.96 176.31 74.67 176.27 74.32 176.3 73.93 176.4 73.54 176.5 73.14 176.68 72.74 176.94 72.34 177.2 71.95 177.52 71.59 177.92 71.26 178.28 70.98 178.67 70.77 179.09 70.55 179.51 70.43 179.95 70.41 180.39 70.38 180.83 70.48 181.26 70.69 181.66 70.9 182.06 71.33 182.56 71.97 183.15 72.21 183.37 72.5 183.59 72.83 183.82 73.28 183.4 74.07 182.57 75.21 181.33L76.21 180.24C77.07 179.28 77.62 178.64 77.86 178.31M62.35 174C62.83 174.51 63.32 175.07 63.83 175.67 64.28 176.21 64.67 176.69 64.99 177.13L65.43 176.76C65.15 176.39 64.99 176.18 64.95 176.11 64.92 176.04 64.9 175.99 64.91 175.95 64.92 175.91 64.94 175.87 64.97 175.82 65.06 175.71 65.3 175.47 65.7 175.1 65.87 174.92 66.28 174.56 66.94 174.01L68.99 172.28C69.32 172 69.7 171.7 70.1 171.39 70.38 171.18 70.55 171.06 70.6 171.04 70.63 171.02 70.68 171.02 70.72 171.02 70.76 171.03 70.82 171.06 70.89 171.12 70.94 171.16 71.13 171.36 71.43 171.69L71.87 171.32C71.49 170.93 71.08 170.47 70.64 169.94 70.13 169.33 69.66 168.75 69.24 168.19L68.8 168.56C69.06 168.88 69.21 169.08 69.25 169.16 69.29 169.24 69.31 169.3 69.31 169.36 69.31 169.41 69.29 169.46 69.26 169.52 69.18 169.64 68.98 169.84 68.64 170.12L67.76 170.91 65.78 172.58C65.72 172.63 65.28 173 64.46 173.66 64.22 173.86 64.06 173.99 63.97 174.06 63.8 174.18 63.68 174.25 63.61 174.28 63.57 174.3 63.53 174.3 63.48 174.29 63.44 174.28 63.38 174.25 63.31 174.2 63.24 174.15 63.06 173.96 62.77 173.64L62.35 174M58.99 165.23C58.62 165.46 58.31 165.64 58.08 165.77 57.84 165.9 57.59 166.01 57.32 166.11L57.22 166.24C57.27 166.59 57.37 166.96 57.54 167.36 57.71 167.76 57.93 168.15 58.18 168.53 58.43 168.89 58.7 169.22 59.02 169.51 59.33 169.8 59.67 170.02 60.05 170.18 60.42 170.33 60.83 170.38 61.28 170.32 61.73 170.26 62.15 170.1 62.55 169.83 62.84 169.64 63.07 169.41 63.26 169.15 63.45 168.89 63.56 168.61 63.61 168.3 63.66 167.99 63.63 167.66 63.51 167.29 63.43 167.05 63.24 166.55 62.95 165.81 62.75 165.29 62.64 164.91 62.61 164.67 62.59 164.43 62.63 164.21 62.73 164.02 62.83 163.83 63 163.66 63.22 163.51 63.48 163.33 63.76 163.23 64.06 163.21 64.35 163.19 64.64 163.27 64.94 163.45 65.24 163.64 65.5 163.9 65.73 164.24 65.99 164.63 66.15 165.04 66.2 165.48 66.25 165.92 66.22 166.28 66.09 166.56 65.74 166.86 65.44 167.1 65.17 167.26L65.47 167.7C66.3 167.15 66.96 166.79 67.44 166.64 67.36 166.1 67.25 165.63 67.1 165.23 66.95 164.83 66.73 164.42 66.43 163.98 66.03 163.38 65.6 162.92 65.14 162.61 64.85 162.41 64.52 162.26 64.13 162.16 63.74 162.05 63.37 162.01 63.02 162.05 62.55 162.09 62.08 162.27 61.63 162.57 61.37 162.74 61.16 162.93 61 163.14 60.84 163.35 60.72 163.55 60.66 163.75 60.59 163.95 60.57 164.17 60.58 164.42 60.6 164.67 60.66 164.96 60.78 165.3 60.83 165.43 60.94 165.7 61.13 166.11 61.31 166.52 61.45 166.85 61.55 167.09 61.66 167.41 61.72 167.67 61.73 167.86 61.74 168.06 61.69 168.24 61.6 168.42 61.51 168.59 61.34 168.76 61.11 168.92 60.78 169.14 60.41 169.2 59.98 169.1 59.56 169 59.18 168.71 58.86 168.22 58.63 167.88 58.48 167.53 58.42 167.18 58.36 166.83 58.37 166.54 58.45 166.32 58.6 166.18 58.88 165.96 59.29 165.68L58.99 165.23M58.06 151.96C58.48 152.26 58.82 152.57 59.08 152.88 59.34 153.19 59.56 153.54 59.76 153.93 60.05 154.53 60.21 155.08 60.22 155.59 60.23 155.97 60.16 156.38 60 156.83 59.84 157.28 59.58 157.71 59.2 158.12 58.82 158.53 58.33 158.89 57.7 159.19 56.67 159.69 55.73 159.81 54.9 159.54 54.06 159.28 53.42 158.69 52.98 157.79 52.73 157.29 52.6 156.85 52.58 156.46 52.55 156.08 52.61 155.69 52.76 155.3 53 155.15 53.33 154.97 53.74 154.76L53.52 154.31C53.15 154.47 52.73 154.63 52.27 154.78 51.98 154.88 51.73 154.94 51.52 154.96L51.46 155.02C51.53 155.66 51.63 156.21 51.76 156.66 51.89 157.11 52.07 157.6 52.33 158.11 53.07 159.63 54.02 160.61 55.2 161.07 56.38 161.52 57.57 161.46 58.79 160.87 59.5 160.52 60.09 160.06 60.56 159.48 60.87 159.1 61.12 158.66 61.29 158.15 61.47 157.64 61.54 157.09 61.51 156.49 61.46 155.74 61.24 154.95 60.84 154.13 60.56 153.56 60.28 153.1 60 152.76 59.72 152.42 59.33 152.08 58.84 151.72L58.13 151.74 58.06 151.96ZM48.71 148.44C48.97 149.09 49.23 149.78 49.49 150.53 49.72 151.19 49.9 151.78 50.05 152.3L50.59 152.11C50.46 151.67 50.39 151.41 50.38 151.33 50.37 151.25 50.38 151.2 50.4 151.16 50.42 151.13 50.45 151.09 50.5 151.06 50.62 150.99 50.93 150.85 51.44 150.65 51.66 150.55 52.18 150.36 52.99 150.08L55.53 149.2C55.95 149.06 56.4 148.91 56.89 148.77 57.23 148.68 57.43 148.63 57.48 148.62 57.52 148.62 57.56 148.63 57.6 148.65 57.64 148.67 57.68 148.72 57.73 148.8 57.76 148.86 57.87 149.11 58.03 149.53L58.57 149.34C58.36 148.84 58.14 148.27 57.92 147.62 57.66 146.87 57.43 146.16 57.24 145.48L56.7 145.67C56.83 146.07 56.9 146.31 56.91 146.39 56.92 146.48 56.92 146.55 56.9 146.6 56.88 146.65 56.85 146.69 56.8 146.73 56.69 146.81 56.42 146.93 56.01 147.07L54.91 147.49 52.46 148.34C52.38 148.37 51.84 148.55 50.84 148.88 50.55 148.98 50.35 149.04 50.24 149.07 50.04 149.13 49.9 149.15 49.82 149.15 49.78 149.15 49.73 149.14 49.7 149.12 49.66 149.09 49.62 149.05 49.58 148.98 49.53 148.91 49.43 148.67 49.28 148.26L48.71 148.44M48.24 144.84C48.24 144.73 48.24 144.66 48.26 144.61 48.28 144.57 48.3 144.53 48.33 144.51 48.38 144.47 48.46 144.43 48.59 144.39 48.71 144.35 49.03 144.27 49.53 144.14L50.7 143.84 52.92 143.33C53.74 143.14 54.49 142.99 55.17 142.89 55.42 142.85 55.58 142.84 55.64 142.85 55.69 142.86 55.73 142.89 55.75 142.92 55.84 143.02 55.94 143.31 56.06 143.77L56.62 143.64C56.46 143.11 56.31 142.55 56.18 141.95 56.06 141.41 55.89 140.6 55.68 139.52L55.12 139.65 55.26 140.5C55.27 140.61 55.26 140.68 55.24 140.73 55.22 140.77 55.19 140.81 55.15 140.84 55.06 140.89 54.84 140.97 54.47 141.07 53.85 141.24 53.25 141.39 52.66 141.52L50.29 142.06 49.06 142.33C48.56 142.44 48.17 142.52 47.91 142.56 47.79 142.29 47.7 142.03 47.64 141.8 47.53 141.31 47.59 140.9 47.81 140.56 48.04 140.22 48.43 139.98 49.01 139.85 49.56 139.72 50 139.76 50.35 139.95 50.7 140.15 50.92 140.45 51.01 140.85 51.03 140.92 51.04 140.99 51.04 141.08 51.04 141.17 51.04 141.26 51.03 141.35L51.2 141.45C51.35 141.3 51.48 141.19 51.59 141.13 51.59 141 51.58 140.87 51.57 140.74 51.55 140.61 51.53 140.47 51.5 140.34 51.38 139.81 51.13 139.34 50.76 138.94 50.39 138.54 49.98 138.27 49.53 138.14 49.07 138.01 48.61 138 48.14 138.11 47.67 138.22 47.31 138.42 47.07 138.72 46.82 139.02 46.68 139.34 46.64 139.68 46.6 140.02 46.64 140.47 46.77 141.01L47.48 143.79 47.85 145.65 48.37 145.53 48.24 144.84ZM54.64 134.29C54.52 133.44 54.44 132.8 54.4 132.38 54.37 132.1 54.33 131.61 54.28 130.9 54.21 129.97 54.17 129.47 54.16 129.39 54.11 128.84 54.06 128.44 54.01 128.18 53.98 128.06 53.95 127.93 53.9 127.81 53.82 127.81 53.57 127.82 53.17 127.83L51.86 127.8C51.84 127.8 51.77 127.8 51.65 127.8L51.7 128.33C52.13 128.37 52.51 128.42 52.85 128.47 52.98 128.5 53.07 128.52 53.1 128.56 53.13 128.59 53.17 128.69 53.21 128.87 53.33 129.34 53.42 129.91 53.48 130.55 53.5 130.76 53.52 131.17 53.55 131.76 53.42 131.78 53.06 131.82 52.46 131.89 51.86 131.96 51.26 132.02 50.65 132.09 49.5 132.21 48.88 132.27 48.8 132.28 48.08 132.35 47.49 132.4 47.02 132.43 46.55 132.46 46.28 132.47 46.22 132.46 46.16 132.44 46.12 132.41 46.08 132.37 46.01 132.27 45.95 131.97 45.88 131.48L45.31 131.54C45.41 132.23 45.51 132.97 45.58 133.74 45.65 134.43 45.69 135.06 45.71 135.6L46.28 135.54C46.25 134.98 46.26 134.65 46.31 134.54 46.33 134.49 46.37 134.45 46.42 134.43 46.53 134.38 46.99 134.31 47.79 134.21 48.11 134.17 48.94 134.08 50.29 133.95 51.21 133.86 51.99 133.79 52.65 133.74 53.31 133.69 53.69 133.66 53.8 133.68 53.83 133.68 53.85 133.69 53.87 133.71 53.91 133.74 53.96 133.79 54.02 133.88 54.16 134.08 54.26 134.23 54.32 134.34L54.64 134.29M45 121.27C45.03 121.97 45.04 122.71 45.03 123.5 45.02 124.2 45 124.82 44.96 125.36L45.53 125.37C45.55 124.91 45.57 124.64 45.59 124.57 45.61 124.49 45.64 124.44 45.67 124.42 45.7 124.39 45.74 124.37 45.8 124.36 45.94 124.33 46.28 124.31 46.82 124.29 47.07 124.27 47.61 124.26 48.47 124.27L51.16 124.3C51.6 124.31 52.07 124.32 52.59 124.35 52.94 124.38 53.14 124.39 53.19 124.41 53.23 124.42 53.26 124.44 53.29 124.47 53.32 124.5 53.34 124.57 53.36 124.66 53.37 124.73 53.39 124.99 53.4 125.45L53.97 125.46C53.94 124.92 53.93 124.31 53.94 123.61 53.95 122.82 53.97 122.07 54.02 121.37L53.45 121.37C53.44 121.78 53.42 122.04 53.4 122.12 53.38 122.21 53.36 122.27 53.32 122.31 53.29 122.35 53.24 122.38 53.18 122.39 53.05 122.43 52.76 122.45 52.32 122.45L51.14 122.47 48.55 122.44C48.47 122.44 47.9 122.43 46.85 122.4 46.54 122.39 46.33 122.39 46.22 122.38 46.01 122.37 45.88 122.34 45.8 122.31 45.76 122.3 45.72 122.27 45.7 122.24 45.67 122.21 45.65 122.15 45.63 122.06 45.61 121.98 45.6 121.72 45.59 121.28L45 121.27M53.98 119.35C54.04 118.64 54.1 118.07 54.16 117.66 54.18 117.55 54.25 117.09 54.39 116.29L53.84 116.21C53.84 116.27 53.83 116.31 53.83 116.34 53.81 116.47 53.77 116.67 53.69 116.94 53.66 117.04 53.63 117.11 53.59 117.15 53.55 117.19 53.51 117.21 53.45 117.22 53.34 117.24 53.04 117.22 52.54 117.17 51.82 117.1 51.14 117.03 50.48 116.93L47.32 116.48C50.75 114.4 53.33 112.78 55.05 111.63 55.15 111.26 55.26 110.9 55.37 110.55L55.33 110.46C54.72 110.43 53 110.22 50.17 109.83 49.81 109.78 49.25 109.69 48.49 109.57 47.73 109.44 47.25 109.34 47.05 109.24 47.01 109.22 46.98 109.19 46.96 109.16 46.91 109.05 46.92 108.74 46.98 108.21L46.45 108.13C46.39 108.8 46.33 109.35 46.27 109.77 46.21 110.21 46.12 110.68 46.01 111.19L46.54 111.27C46.63 110.71 46.72 110.38 46.81 110.29 46.87 110.24 46.97 110.21 47.13 110.22 47.54 110.23 48.89 110.39 51.18 110.71L52.66 110.92C51.97 111.42 51.02 112.05 49.82 112.79 48.15 113.82 46.69 114.69 45.42 115.4L45.36 115.99 45.26 116.91C45.23 117.16 45.15 117.56 45.04 118.09L45.57 118.16C45.66 117.72 45.73 117.45 45.77 117.36 45.81 117.27 45.85 117.21 45.9 117.18 45.95 117.15 46.02 117.13 46.12 117.12 46.22 117.11 46.42 117.13 46.73 117.17L48.59 117.39 50.63 117.68C51.19 117.76 51.65 117.83 52 117.9 52.61 118.02 53 118.1 53.16 118.15 53.27 118.19 53.35 118.23 53.38 118.26 53.41 118.3 53.43 118.34 53.45 118.39 53.46 118.47 53.44 118.76 53.4 119.27L53.98 119.35ZM55.77 107.79 55.26 107.63C55.34 107.29 55.38 107.09 55.38 107.02 55.38 106.95 55.37 106.89 55.35 106.83 55.32 106.77 55.28 106.71 55.21 106.63 55.14 106.56 54.87 106.32 54.41 105.92 54.19 105.73 53.75 105.37 53.1 104.83L49.65 101.99 48.43 101.01 48.7 100.14 55.97 99.41 56.93 99.29 57.57 99.22C57.66 99.2 57.72 99.18 57.77 99.15 57.81 99.12 57.85 99.09 57.88 99.05 57.91 99.01 57.96 98.89 58.03 98.71 58.06 98.65 58.1 98.56 58.15 98.45L58.66 98.61 58.07 100.3 57.45 102.47 56.94 102.31C57.08 101.81 57.14 101.52 57.12 101.45 57.11 101.37 57.06 101.32 56.98 101.3 56.88 101.27 56.7 101.26 56.43 101.28L54.92 101.38 53.92 104.55 54.57 105.05C55.07 105.43 55.39 105.64 55.53 105.68 55.63 105.71 55.71 105.7 55.77 105.65 55.86 105.57 55.98 105.29 56.16 104.81L56.67 104.97 56.17 106.37 55.77 107.79ZM53.28 104.05C53.43 103.67 53.57 103.24 53.72 102.75 53.87 102.28 53.99 101.85 54.08 101.47L50.5 101.79 53.28 104.05ZM82.11 57.56C82.21 57.53 82.29 57.51 82.33 57.51 82.38 57.51 82.42 57.52 82.45 57.54 82.5 57.57 82.57 57.64 82.64 57.75 82.72 57.85 82.89 58.13 83.16 58.57L83.8 59.6 84.95 61.56C85.38 62.28 85.74 62.95 86.05 63.57 86.16 63.8 86.22 63.94 86.23 64.01 86.23 64.06 86.22 64.1 86.2 64.14 86.12 64.26 85.89 64.44 85.48 64.69L85.77 65.18C86.23 64.87 86.73 64.56 87.25 64.25 87.73 63.97 88.45 63.57 89.42 63.04L89.13 62.55 88.36 62.93C88.26 62.97 88.18 62.98 88.13 62.98 88.08 62.97 88.04 62.96 88 62.93 87.92 62.86 87.78 62.67 87.58 62.36 87.23 61.82 86.91 61.29 86.61 60.77L85.38 58.67 84.76 57.57C84.5 57.13 84.32 56.78 84.2 56.54 84.42 56.34 84.64 56.18 84.85 56.06 85.28 55.81 85.7 55.74 86.09 55.85 86.48 55.96 86.83 56.27 87.12 56.78 87.4 57.26 87.51 57.7 87.42 58.09 87.34 58.48 87.12 58.78 86.76 58.99 86.7 59.02 86.63 59.06 86.55 59.09 86.47 59.12 86.38 59.14 86.28 59.17L86.24 59.36C86.43 59.46 86.57 59.55 86.67 59.63 86.8 59.59 86.92 59.54 87.04 59.49 87.16 59.44 87.28 59.38 87.4 59.31 87.87 59.03 88.24 58.66 88.52 58.19 88.79 57.72 88.92 57.25 88.91 56.77 88.89 56.3 88.76 55.85 88.52 55.44 88.28 55.03 87.97 54.74 87.62 54.6 87.26 54.45 86.92 54.41 86.58 54.48 86.24 54.54 85.83 54.72 85.34 55L82.9 56.51 81.23 57.43 81.5 57.89 82.11 57.56ZM89.18 53.42C89.67 53.25 89.97 53.16 90.08 53.17 90.13 53.18 90.17 53.2 90.21 53.23 90.29 53.31 90.44 53.6 90.66 54.09L91.23 55.32 92.18 57.51 92.9 59.25C93.02 59.57 93.11 59.81 93.15 59.97 93.17 60.06 93.18 60.12 93.17 60.16 93.16 60.2 93.14 60.23 93.09 60.26 93.02 60.32 92.76 60.46 92.33 60.67L92.56 61.2C93.06 60.94 93.62 60.68 94.23 60.42 94.91 60.12 95.6 59.85 96.29 59.59L96.06 59.06C95.68 59.22 95.44 59.3 95.36 59.32 95.28 59.34 95.21 59.34 95.16 59.33 95.11 59.32 95.08 59.3 95.05 59.28 94.99 59.23 94.9 59.09 94.8 58.88 94.74 58.77 94.53 58.32 94.17 57.51 93.87 56.85 93.59 56.23 93.34 55.64 93.18 55.27 92.87 54.52 92.4 53.39 92.19 52.89 92.07 52.57 92.02 52.42 92.19 52.31 92.37 52.21 92.56 52.13 92.99 51.94 93.3 51.84 93.49 51.83 93.79 51.81 94.08 51.89 94.36 52.05 94.64 52.22 94.86 52.48 95.01 52.84 95.17 53.2 95.22 53.56 95.18 53.92 95.14 54.28 95.02 54.57 94.83 54.79 94.64 55.01 94.3 55.21 93.82 55.4L93.84 55.62C94 55.65 94.17 55.73 94.38 55.85 94.78 56.08 95.29 56.42 95.92 56.86L98.1 58.4C98.23 58.5 98.33 58.6 98.39 58.67 98.69 58.5 98.99 58.35 99.31 58.21 99.58 58.09 100.03 57.92 100.65 57.69L100.42 57.17C100.23 57.25 100.1 57.29 100.03 57.29 99.95 57.29 99.87 57.27 99.77 57.23 99.67 57.19 99.39 57.04 98.92 56.78 98.89 56.76 98.67 56.62 98.27 56.37L96.76 55.4C96.72 55.37 96.68 55.35 96.64 55.32 96.6 55.29 96.48 55.21 96.27 55.08 96.06 54.95 95.87 54.82 95.7 54.69 96.22 54.19 96.55 53.68 96.68 53.16 96.81 52.64 96.77 52.14 96.56 51.66 96.39 51.26 96.13 50.96 95.79 50.78 95.45 50.59 95.11 50.52 94.77 50.57 94.42 50.61 93.94 50.77 93.32 51.04 93 51.18 92.6 51.37 92.12 51.6 91.83 51.75 91.48 51.91 91.07 52.09 90.59 52.3 90.21 52.46 89.94 52.56 89.39 52.77 89.07 52.9 88.98 52.94L89.18 53.42M100.74 57.66 100.59 57.14C100.92 57.02 101.11 56.94 101.17 56.91 101.23 56.87 101.28 56.83 101.31 56.78 101.34 56.73 101.37 56.65 101.4 56.56 101.42 56.46 101.48 56.11 101.56 55.5 101.6 55.21 101.66 54.65 101.75 53.81L102.24 49.37 102.39 47.81 103.27 47.56 107.86 53.25 108.48 53.99 108.89 54.49C108.95 54.55 109.01 54.59 109.05 54.62 109.09 54.64 109.14 54.65 109.2 54.66 109.25 54.66 109.38 54.64 109.57 54.6 109.63 54.59 109.73 54.57 109.85 54.55L110 55.07 108.26 55.5 106.1 56.16 105.96 55.64C106.45 55.48 106.73 55.37 106.78 55.32 106.83 55.27 106.85 55.2 106.83 55.12 106.8 55.02 106.71 54.86 106.55 54.65L105.64 53.44 102.44 54.34 102.38 55.15C102.34 55.78 102.33 56.16 102.37 56.3 102.4 56.4 102.45 56.46 102.53 56.48 102.64 56.51 102.95 56.46 103.45 56.34L103.6 56.86 102.16 57.21 100.74 57.66ZM102.52 53.52C102.91 53.43 103.36 53.32 103.85 53.18 104.32 53.04 104.75 52.91 105.12 52.79L102.9 49.97 102.52 53.52ZM111.04 54.93C112.35 54.7 113.06 54.58 113.16 54.56 113.54 54.5 114.24 54.41 115.25 54.28L116.28 54.15C116.78 54.08 117.16 54 117.43 53.93L117.5 53.84C117.42 53.3 117.37 52.61 117.34 51.75L116.83 51.83C116.83 52.41 116.8 52.8 116.76 53.02 116.74 53.08 116.72 53.13 116.69 53.15 116.61 53.22 116.38 53.3 115.99 53.38 115.61 53.47 115.19 53.54 114.73 53.61 114.26 53.68 113.85 53.72 113.5 53.74 113.44 53.53 113.4 53.28 113.35 52.98L112.96 50.32C113.23 50.24 113.56 50.18 113.98 50.11 114.44 50.04 114.83 50.01 115.13 50.01 115.27 50.01 115.36 50.05 115.43 50.13 115.52 50.23 115.59 50.53 115.66 51.02L116.17 50.94 115.93 49.56 115.76 48.16 115.25 48.24C115.3 48.62 115.31 48.89 115.28 49.06 115.27 49.13 115.25 49.18 115.21 49.21 115.17 49.24 115.04 49.28 114.81 49.31 114.21 49.42 113.86 49.48 113.76 49.49 113.45 49.54 113.14 49.56 112.85 49.57L112.65 48.26C112.54 47.52 112.48 46.91 112.47 46.42 112.86 46.33 113.24 46.25 113.62 46.2 114.02 46.14 114.44 46.1 114.86 46.09 115.15 46.08 115.32 46.09 115.38 46.12 115.42 46.14 115.45 46.18 115.48 46.24 115.52 46.35 115.59 46.66 115.67 47.16L116.17 47.09C116.13 46.54 116.1 46.23 116.1 46.17L116.09 45.24 116.03 45.16C115.93 45.15 115.85 45.14 115.81 45.15 115.34 45.2 115.03 45.24 114.88 45.26L113.59 45.48C112.88 45.6 112.24 45.7 111.65 45.79 111.38 45.83 111.1 45.87 110.81 45.92L109.34 46.15 109.41 46.65C109.9 46.6 110.21 46.6 110.33 46.63 110.37 46.65 110.41 46.67 110.44 46.71 110.5 46.81 110.58 47.1 110.66 47.57 110.79 48.28 110.87 48.7 110.88 48.81L111.31 51.68C111.36 52.01 111.42 52.54 111.5 53.28 111.54 53.68 111.57 53.97 111.57 54.15 111.42 54.3 111.23 54.46 110.99 54.61L111.04 54.93M124.34 46.97C124.34 46.53 124.34 46.18 124.36 45.91 124.38 45.64 124.41 45.37 124.46 45.09L124.4 44.94C124.08 44.8 123.71 44.69 123.27 44.63 122.84 44.56 122.4 44.54 121.94 44.56 121.5 44.58 121.08 44.64 120.66 44.75 120.25 44.86 119.88 45.04 119.56 45.27 119.24 45.51 118.98 45.83 118.8 46.24 118.61 46.65 118.53 47.1 118.55 47.58 118.56 47.92 118.63 48.24 118.75 48.54 118.87 48.83 119.05 49.08 119.29 49.28 119.53 49.48 119.83 49.63 120.2 49.73 120.45 49.79 120.97 49.89 121.75 50.03 122.3 50.13 122.68 50.24 122.9 50.35 123.12 50.46 123.28 50.61 123.39 50.79 123.5 50.98 123.56 51.21 123.57 51.48 123.58 51.8 123.52 52.09 123.39 52.35 123.26 52.61 123.03 52.82 122.72 52.97 122.41 53.13 122.04 53.21 121.64 53.23 121.17 53.25 120.74 53.16 120.33 52.98 119.93 52.79 119.64 52.57 119.47 52.31 119.4 51.86 119.36 51.47 119.36 51.16L118.82 51.18C118.85 52.18 118.81 52.92 118.69 53.42 119.19 53.64 119.65 53.79 120.07 53.87 120.49 53.95 120.96 53.99 121.49 53.96 122.21 53.93 122.83 53.81 123.33 53.58 123.65 53.44 123.95 53.23 124.25 52.96 124.55 52.69 124.77 52.39 124.93 52.07 125.14 51.65 125.24 51.16 125.22 50.61 125.21 50.29 125.15 50.02 125.06 49.77 124.97 49.52 124.86 49.32 124.72 49.16 124.59 49 124.41 48.86 124.19 48.74 123.97 48.62 123.69 48.52 123.33 48.45 123.19 48.42 122.9 48.38 122.46 48.32 122.01 48.26 121.66 48.21 121.41 48.17 121.08 48.1 120.83 48.01 120.66 47.91 120.49 47.82 120.35 47.68 120.26 47.51 120.16 47.34 120.11 47.11 120.09 46.83 120.08 46.43 120.22 46.09 120.53 45.78 120.84 45.47 121.29 45.31 121.87 45.29 122.28 45.27 122.65 45.33 122.99 45.47 123.32 45.6 123.56 45.76 123.7 45.94 123.74 46.15 123.78 46.5 123.8 46.99L124.34 46.97M128.71 44.83C128.01 44.79 127.39 44.74 126.85 44.68L126.82 45.25C127.28 45.29 127.54 45.32 127.62 45.34 127.7 45.37 127.74 45.39 127.77 45.42 127.8 45.45 127.81 45.5 127.82 45.55 127.84 45.69 127.85 46.03 127.84 46.58 127.85 46.82 127.83 47.37 127.79 48.23L127.65 50.91C127.62 51.35 127.59 51.82 127.54 52.33 127.5 52.68 127.47 52.88 127.46 52.93 127.45 52.97 127.43 53 127.39 53.03 127.36 53.06 127.29 53.08 127.2 53.09 127.13 53.1 126.86 53.1 126.41 53.09L126.38 53.66C126.92 53.65 127.54 53.67 128.23 53.7 129.02 53.74 129.77 53.8 130.46 53.87L130.49 53.3C130.08 53.27 129.83 53.24 129.74 53.22 129.65 53.2 129.59 53.17 129.55 53.13 129.51 53.1 129.49 53.05 129.47 52.99 129.43 52.86 129.43 52.57 129.45 52.13L129.48 50.95 129.61 48.36C129.61 48.28 129.65 47.71 129.72 46.66 129.74 46.35 129.75 46.14 129.77 46.03 129.79 45.83 129.82 45.69 129.86 45.62 129.88 45.58 129.9 45.54 129.94 45.52 129.97 45.49 130.04 45.47 130.12 45.46 130.2 45.44 130.47 45.44 130.9 45.45L130.93 44.88C130.23 44.89 129.49 44.87 128.71 44.83M131.49 53.86 131.54 53.55C131.58 53.53 131.64 53.51 131.73 53.48 131.9 53.42 132.07 53.35 132.22 53.27 132.36 52.71 132.54 51.79 132.75 50.52L132.92 49.48C133.01 48.92 133.13 48.1 133.29 47.01 133.38 46.41 133.41 46.03 133.4 45.85 133.39 45.81 133.38 45.78 133.36 45.75 133.33 45.71 133.28 45.68 133.22 45.65 133.15 45.62 132.89 45.54 132.45 45.4L132.54 44.89 134.83 45.32C135.1 45.36 135.61 45.43 136.36 45.53 136.9 45.6 137.34 45.66 137.66 45.72 138.41 45.84 139 45.99 139.43 46.15 139.87 46.31 140.23 46.53 140.53 46.78 140.83 47.04 141.07 47.32 141.26 47.64 141.44 47.95 141.57 48.28 141.63 48.62 141.74 49.19 141.74 49.79 141.64 50.42 141.51 51.23 141.24 51.93 140.84 52.52 140.44 53.11 139.94 53.57 139.36 53.91 138.77 54.25 138.16 54.47 137.53 54.56 136.89 54.65 136.15 54.62 135.29 54.48L133.42 54.12 131.49 53.86ZM134.16 53.5C134.54 53.62 134.91 53.71 135.26 53.77 135.82 53.86 136.32 53.89 136.77 53.84 137.1 53.8 137.4 53.72 137.67 53.59 137.94 53.46 138.21 53.25 138.48 52.95 138.75 52.66 138.99 52.29 139.19 51.85 139.39 51.41 139.53 50.93 139.62 50.4 139.7 49.92 139.72 49.44 139.67 48.97 139.62 48.5 139.49 48.07 139.27 47.69 139.05 47.31 138.74 47 138.34 46.78 137.94 46.56 137.31 46.37 136.45 46.23 136.13 46.18 135.77 46.15 135.37 46.14 135.22 46.73 135.01 47.86 134.74 49.53L134.51 51C134.3 52.26 134.18 53.09 134.16 53.5M148.12 48.2C147.44 48.05 146.72 47.86 145.96 47.65 145.29 47.46 144.69 47.28 144.19 47.09L144.03 47.64C144.47 47.78 144.72 47.87 144.79 47.91 144.86 47.95 144.9 47.99 144.91 48.02 144.93 48.06 144.94 48.1 144.94 48.16 144.93 48.3 144.86 48.63 144.74 49.17 144.7 49.41 144.56 49.94 144.33 50.76L143.6 53.35C143.48 53.77 143.34 54.22 143.18 54.71 143.06 55.04 142.99 55.23 142.97 55.28 142.95 55.31 142.92 55.34 142.88 55.36 142.84 55.38 142.77 55.39 142.68 55.38 142.61 55.37 142.35 55.32 141.91 55.21L141.75 55.76C142.28 55.87 142.88 56.02 143.55 56.21 144.31 56.42 145.03 56.64 145.69 56.87L145.85 56.32C145.45 56.2 145.22 56.12 145.13 56.08 145.05 56.04 145 55.99 144.97 55.95 144.94 55.91 144.93 55.86 144.93 55.79 144.93 55.65 144.98 55.37 145.1 54.94L145.38 53.8 146.08 51.3C146.1 51.22 146.26 50.68 146.56 49.66 146.65 49.37 146.71 49.16 146.75 49.06 146.82 48.87 146.88 48.74 146.93 48.68 146.96 48.64 146.99 48.61 147.03 48.6 147.07 48.58 147.13 48.57 147.22 48.58 147.31 48.58 147.56 48.64 147.98 48.74L148.12 48.2M150.11 49.43C150.17 49.52 150.2 49.59 150.2 49.65 150.2 49.74 150.18 49.88 150.12 50.06 149.96 50.51 149.78 51.02 149.55 51.58L148.94 53.1 148.48 54.25C148.23 54.88 148.09 55.27 148.05 55.42 147.99 55.66 147.97 55.93 148 56.23 148.03 56.53 148.12 56.83 148.28 57.13 148.44 57.43 148.69 57.71 149.02 57.98 149.48 58.35 150.01 58.66 150.62 58.9 151.14 59.11 151.61 59.23 152.05 59.28 152.49 59.33 152.89 59.3 153.27 59.19 153.64 59.09 153.96 58.93 154.23 58.72 154.5 58.51 154.73 58.23 154.93 57.87 155.14 57.51 155.31 57.15 155.45 56.79L156.01 55.39C156.18 54.98 156.42 54.42 156.73 53.71 157.05 53 157.23 52.61 157.3 52.53 157.36 52.45 157.43 52.41 157.49 52.39 157.61 52.37 157.86 52.43 158.23 52.58L158.43 52.08 157.1 51.6C157.03 51.58 156.97 51.56 156.94 51.54 156.8 51.49 156.39 51.3 155.69 50.98L155.49 51.48C155.93 51.67 156.2 51.82 156.3 51.94 156.35 52 156.38 52.06 156.38 52.14 156.38 52.26 156.29 52.57 156.1 53.08 156.01 53.31 155.75 53.95 155.33 55L154.84 56.22C154.5 57.07 154.2 57.61 153.94 57.86 153.68 58.11 153.35 58.26 152.94 58.32 152.53 58.38 152.05 58.29 151.49 58.07 151 57.87 150.63 57.64 150.37 57.38 150.11 57.11 149.95 56.83 149.89 56.54 149.83 56.25 149.86 55.91 149.97 55.52 150.02 55.34 150.19 54.89 150.48 54.16L150.75 53.46 151.3 52.07C151.63 51.23 151.88 50.7 152.03 50.47 152.09 50.38 152.16 50.32 152.23 50.31 152.38 50.28 152.66 50.35 153.09 50.52L153.29 50.02 153.07 49.94 152.26 49.65 151.45 49.34 149.53 48.52 149.33 49.02 150.11 49.43ZM155.52 60.54C155.87 60.71 156.33 60.96 156.9 61.3 157.33 61.56 157.74 61.83 158.14 62.1L158.43 61.61C158.07 61.36 157.86 61.21 157.79 61.13 157.73 61.06 157.69 60.99 157.68 60.94 157.67 60.88 157.68 60.81 157.72 60.72 157.75 60.63 157.95 60.27 158.31 59.64 158.67 59.01 158.99 58.47 159.26 58.02L160.88 55.32 160.57 59.16C160.52 59.74 160.43 60.63 160.31 61.8 160.24 62.49 160.18 63.03 160.13 63.42L160.5 63.64C160.75 63.46 161.08 63.23 161.49 62.95 162.17 62.48 162.7 62.13 163.06 61.89L164.44 60.97 167.28 59.15 164.88 63.16C164.42 63.94 164.13 64.38 164.02 64.5 163.91 64.62 163.81 64.68 163.72 64.68 163.63 64.68 163.35 64.55 162.88 64.29L162.58 64.78 164.34 65.77 166.09 66.88 166.39 66.39C165.99 66.12 165.77 65.96 165.72 65.91 165.67 65.86 165.65 65.81 165.63 65.76 165.62 65.71 165.62 65.66 165.64 65.6 165.68 65.48 165.83 65.18 166.07 64.7 166.12 64.62 166.28 64.34 166.56 63.88L167.71 61.95 168.66 60.42C168.76 60.26 168.9 60.03 169.08 59.73 169.23 59.47 169.38 59.33 169.54 59.3 169.69 59.27 169.96 59.37 170.33 59.6L170.41 59.65 170.71 59.16 169.03 58.22C168.89 58.14 168.59 57.94 168.13 57.62 167.83 57.85 167.58 58.04 167.37 58.18 167.16 58.32 166.6 58.7 165.68 59.31L164.03 60.4C163.6 60.69 162.98 61.08 162.17 61.59L162.58 56.9 162.69 55.84 162.85 54.45C162.45 54.25 162.06 54.04 161.68 53.81 161.39 53.64 160.88 53.31 160.13 52.82L159.84 53.31C160.03 53.44 160.24 53.59 160.46 53.78 160.54 53.85 160.59 53.91 160.6 53.95 160.61 54 160.61 54.05 160.6 54.11 160.57 54.24 160.39 54.6 160.06 55.18 159.73 55.76 159.34 56.42 158.9 57.16 158.4 57.99 158.05 58.58 157.84 58.91 157.4 59.6 157.11 60.05 156.96 60.24 156.89 60.33 156.83 60.38 156.77 60.41 156.72 60.43 156.67 60.44 156.62 60.42 156.52 60.4 156.25 60.28 155.81 60.06L155.52 60.54M195.41 111.06C195.06 110.68 194.8 110.3 194.61 109.95 194.42 109.6 194.27 109.21 194.16 108.79 194 108.15 193.97 107.57 194.05 107.07 194.12 106.7 194.28 106.31 194.52 105.9 194.76 105.49 195.11 105.12 195.57 104.8 196.02 104.48 196.58 104.23 197.26 104.07 198.37 103.79 199.31 103.87 200.07 104.3 200.84 104.73 201.34 105.44 201.58 106.41 201.72 106.95 201.75 107.41 201.7 107.79 201.65 108.17 201.51 108.54 201.29 108.89 201.03 108.98 200.67 109.09 200.22 109.21L200.34 109.7C200.74 109.62 201.18 109.55 201.66 109.5 201.96 109.47 202.22 109.46 202.43 109.48L202.5 109.43C202.56 108.79 202.58 108.23 202.55 107.76 202.52 107.29 202.44 106.78 202.3 106.22 201.9 104.59 201.16 103.42 200.11 102.73 199.06 102.04 197.87 101.86 196.56 102.18 195.79 102.37 195.12 102.7 194.54 103.16 194.16 103.47 193.83 103.85 193.55 104.31 193.27 104.77 193.08 105.3 192.99 105.88 192.88 106.63 192.93 107.44 193.15 108.33 193.3 108.95 193.48 109.45 193.69 109.84 193.9 110.23 194.2 110.65 194.61 111.1L195.31 111.23 195.41 111.06ZM203.85 116.46C203.73 115.77 203.61 115.04 203.52 114.26 203.43 113.57 203.37 112.95 203.34 112.41L202.77 112.48C202.81 112.94 202.83 113.21 202.82 113.28 202.81 113.36 202.79 113.41 202.77 113.44 202.74 113.47 202.71 113.5 202.65 113.52 202.52 113.57 202.18 113.63 201.65 113.72 201.41 113.78 200.87 113.86 200.02 113.97L197.35 114.31C196.92 114.36 196.44 114.41 195.93 114.46 195.58 114.48 195.38 114.49 195.32 114.48 195.28 114.48 195.24 114.46 195.21 114.43 195.17 114.4 195.14 114.34 195.12 114.25 195.1 114.18 195.05 113.92 194.97 113.47L194.4 113.54C194.5 114.07 194.6 114.68 194.69 115.37 194.79 116.16 194.87 116.9 194.92 117.6L195.49 117.53C195.45 117.12 195.43 116.87 195.44 116.78 195.45 116.69 195.47 116.63 195.49 116.58 195.52 116.54 195.56 116.5 195.62 116.48 195.75 116.42 196.03 116.36 196.47 116.31L197.63 116.13 200.2 115.8C200.28 115.79 200.84 115.72 201.89 115.6 202.2 115.57 202.4 115.54 202.52 115.54 202.73 115.53 202.87 115.53 202.94 115.55 202.98 115.56 203.02 115.58 203.05 115.61 203.08 115.64 203.11 115.7 203.14 115.77 203.17 115.85 203.22 116.1 203.29 116.54L203.85 116.46M195.15 124.84C195.89 125.1 197.14 125.6 198.91 126.33L200.98 127.19 202.05 127.64C202.94 128.01 203.42 128.25 203.52 128.36 203.57 128.43 203.61 128.67 203.66 129.09L204.23 129.09 204.17 127.7 204.22 126.07 203.65 126.07C203.65 126.26 203.63 126.5 203.61 126.78 203.6 126.9 203.59 126.98 203.58 127.01 203.56 127.05 203.54 127.08 203.5 127.1 203.46 127.13 203.41 127.14 203.34 127.14 203.29 127.14 203.24 127.14 203.19 127.13 203.01 127.09 202.67 126.97 202.15 126.78 201.42 126.51 201.01 126.36 200.93 126.33L197.38 124.91 201.36 123.27C201.41 123.25 201.45 123.24 201.48 123.23 201.51 123.22 201.73 123.13 202.12 122.97 202.8 122.69 203.21 122.54 203.34 122.54 203.41 122.54 203.46 122.56 203.5 122.59 203.54 122.62 203.57 122.69 203.59 122.79 203.63 122.95 203.65 123.22 203.66 123.58L204.23 123.58 204.17 121.27C204.17 121.05 204.19 120.42 204.22 119.39L203.65 119.39C203.64 119.79 203.61 120.06 203.54 120.19 203.49 120.28 203.31 120.4 202.98 120.57 202.65 120.74 201.64 121.18 199.92 121.9L197.74 122.82C196.93 123.16 196.07 123.51 195.17 123.88L195.15 124.84ZM203.38 136.12C203.43 135.42 203.5 134.68 203.59 133.9 203.68 133.21 203.77 132.59 203.87 132.06L203.3 131.99C203.23 132.45 203.18 132.71 203.15 132.78 203.12 132.85 203.09 132.9 203.06 132.92 203.03 132.94 202.98 132.96 202.92 132.96 202.78 132.97 202.44 132.96 201.89 132.91 201.64 132.9 201.1 132.85 200.25 132.75L197.58 132.42C197.14 132.37 196.67 132.3 196.17 132.21 195.82 132.15 195.63 132.1 195.58 132.08 195.54 132.07 195.51 132.04 195.48 132.01 195.46 131.97 195.44 131.91 195.44 131.81 195.43 131.74 195.45 131.47 195.49 131.02L194.92 130.95C194.89 131.49 194.83 132.11 194.75 132.79 194.66 133.58 194.54 134.31 194.43 135.01L195 135.08C195.06 134.67 195.1 134.42 195.13 134.34 195.16 134.26 195.19 134.2 195.23 134.16 195.27 134.12 195.32 134.1 195.38 134.09 195.52 134.06 195.8 134.08 196.24 134.13L197.41 134.24 199.98 134.55C200.06 134.56 200.63 134.64 201.67 134.78 201.98 134.82 202.19 134.85 202.29 134.87 202.49 134.91 202.63 134.95 202.7 134.98 202.74 135 202.77 135.03 202.79 135.07 202.81 135.11 202.83 135.17 202.84 135.25 202.85 135.34 202.84 135.59 202.79 136.03L203.38 136.12M193.75 138.81C193.6 139.59 193.45 140.27 193.31 140.86 193.18 141.41 193 142.08 192.77 142.88L193.28 143C193.42 142.5 193.52 142.21 193.6 142.13 193.67 142.05 193.77 142 193.89 142 194.09 142 194.63 142.11 195.54 142.32L199.3 143.23C200.3 143.47 200.87 143.61 201.02 143.66L200.81 144.55C200.69 145.03 200.58 145.44 200.46 145.77 200.43 145.88 200.39 145.94 200.37 145.96 200.33 145.98 200.24 145.99 200.08 145.97 199.77 145.94 199.45 145.9 199.12 145.82L199 146.34C199.88 146.57 200.34 146.68 200.37 146.69 200.56 146.75 200.78 146.82 201.02 146.92L201.1 146.87C201.13 146.67 201.16 146.47 201.2 146.28 201.28 145.93 201.44 145.22 201.69 144.18L202.3 141.66C202.54 140.64 202.71 139.95 202.81 139.6 202.87 139.38 202.93 139.17 203 138.98L202.95 138.91C202.73 138.88 202.53 138.86 202.34 138.82 202.23 138.8 201.74 138.69 200.88 138.5L200.76 139.02C201.12 139.12 201.44 139.23 201.73 139.35 201.85 139.4 201.91 139.44 201.93 139.48 201.95 139.51 201.95 139.59 201.92 139.73 201.87 140.08 201.79 140.47 201.68 140.92L201.47 141.81C201.34 141.8 200.77 141.68 199.74 141.43L195.98 140.52C195.08 140.3 194.54 140.15 194.37 140.06 194.26 140 194.19 139.91 194.17 139.81 194.14 139.7 194.18 139.4 194.28 138.89L193.75 138.81M192.22 145.23 192.72 145.42C192.62 145.75 192.57 145.96 192.56 146.03 192.55 146.1 192.56 146.16 192.58 146.22 192.6 146.28 192.64 146.35 192.71 146.43 192.77 146.51 193.03 146.76 193.46 147.19 193.67 147.39 194.08 147.78 194.7 148.36L197.96 151.42 199.12 152.47 198.79 153.32 191.49 153.58 190.52 153.64 189.88 153.66C189.79 153.67 189.73 153.69 189.68 153.71 189.63 153.74 189.59 153.77 189.56 153.81 189.53 153.85 189.47 153.96 189.38 154.14 189.35 154.2 189.3 154.28 189.25 154.39L188.75 154.19 189.44 152.54 190.2 150.42 190.7 150.61C190.53 151.1 190.46 151.39 190.47 151.46 190.48 151.53 190.52 151.59 190.6 151.62 190.7 151.66 190.88 151.68 191.14 151.67L192.65 151.66 193.85 148.56 193.23 148.02C192.76 147.61 192.45 147.38 192.31 147.33 192.22 147.29 192.14 147.3 192.07 147.35 191.98 147.42 191.83 147.7 191.63 148.16L191.13 147.97 191.71 146.61 192.22 145.23ZM194.46 149.13C194.29 149.5 194.12 149.92 193.93 150.4 193.75 150.86 193.6 151.28 193.49 151.65L197.08 151.56 194.46 149.13ZM187.55 156.37C187.2 157.08 186.88 157.7 186.59 158.24 186.32 158.74 185.97 159.34 185.54 160.05L186 160.3C186.26 159.86 186.44 159.61 186.53 159.54 186.62 159.48 186.73 159.46 186.84 159.49 187.03 159.54 187.53 159.79 188.35 160.23L191.74 162.09C192.64 162.58 193.16 162.87 193.28 162.95L192.84 163.76C192.6 164.19 192.39 164.56 192.19 164.85 192.13 164.94 192.08 165 192.05 165.01 192.01 165.02 191.91 165 191.77 164.95 191.48 164.85 191.18 164.71 190.88 164.56L190.62 165.03C191.41 165.47 191.82 165.71 191.85 165.73 192.02 165.83 192.21 165.96 192.42 166.12L192.51 166.09C192.59 165.9 192.68 165.72 192.77 165.55 192.93 165.23 193.27 164.59 193.79 163.64L195.04 161.36C195.54 160.44 195.89 159.82 196.07 159.5 196.18 159.3 196.3 159.12 196.41 158.96L196.38 158.88C196.17 158.8 195.98 158.72 195.81 158.64 195.71 158.59 195.27 158.36 194.49 157.95L194.23 158.42C194.55 158.61 194.84 158.8 195.08 158.99 195.18 159.07 195.23 159.13 195.24 159.17 195.25 159.2 195.22 159.28 195.17 159.41 195.03 159.73 194.85 160.09 194.63 160.5L194.19 161.3C194.07 161.26 193.55 160.99 192.62 160.48L189.23 158.62C188.41 158.17 187.94 157.89 187.8 157.76 187.71 157.67 187.67 157.57 187.67 157.46 187.67 157.35 187.79 157.07 188.02 156.61L187.55 156.37M188.46 171.92C188.83 171.33 189.25 170.71 189.7 170.07 190.1 169.5 190.47 169 190.81 168.58L190.34 168.25C190.06 168.62 189.89 168.82 189.83 168.87 189.77 168.92 189.72 168.95 189.68 168.95 189.64 168.96 189.59 168.95 189.54 168.93 189.41 168.87 189.12 168.7 188.66 168.4 188.45 168.28 187.99 167.97 187.29 167.48L185.09 165.93C184.73 165.68 184.35 165.39 183.94 165.08 183.66 164.86 183.51 164.73 183.47 164.69 183.44 164.66 183.43 164.62 183.42 164.58 183.41 164.54 183.43 164.47 183.47 164.39 183.5 164.32 183.64 164.1 183.89 163.72L183.42 163.39C183.14 163.85 182.8 164.37 182.4 164.93 181.94 165.58 181.5 166.18 181.07 166.73L181.54 167.06C181.79 166.73 181.94 166.53 182.01 166.47 182.08 166.41 182.13 166.37 182.18 166.36 182.23 166.34 182.29 166.35 182.34 166.37 182.47 166.41 182.72 166.56 183.08 166.81L184.06 167.46 186.18 168.95C186.25 169 186.71 169.33 187.56 169.95 187.81 170.13 187.98 170.26 188.06 170.33 188.22 170.46 188.32 170.56 188.37 170.62 188.4 170.65 188.41 170.7 188.42 170.74 188.42 170.78 188.41 170.84 188.38 170.93 188.35 171.01 188.21 171.23 187.97 171.6L188.46 171.92M180.84 177.39C181.16 177.69 181.41 177.93 181.59 178.14 181.77 178.34 181.95 178.55 182.12 178.78L182.27 178.84C182.6 178.71 182.93 178.51 183.27 178.24 183.61 177.97 183.94 177.67 184.24 177.32 184.53 176.99 184.78 176.64 184.98 176.26 185.19 175.88 185.31 175.5 185.36 175.1 185.41 174.7 185.35 174.3 185.18 173.88 185.01 173.46 184.74 173.09 184.38 172.77 184.12 172.54 183.84 172.37 183.55 172.26 183.25 172.15 182.95 172.11 182.64 172.14 182.33 172.17 182.02 172.29 181.69 172.49 181.47 172.63 181.05 172.93 180.41 173.41 179.96 173.74 179.62 173.94 179.39 174.03 179.16 174.12 178.94 174.13 178.73 174.08 178.52 174.03 178.31 173.91 178.11 173.73 177.87 173.52 177.7 173.27 177.61 173 177.52 172.73 177.52 172.42 177.62 172.08 177.73 171.75 177.91 171.42 178.18 171.12 178.49 170.77 178.85 170.51 179.26 170.35 179.67 170.19 180.03 170.13 180.34 170.18 180.72 170.44 181.02 170.68 181.25 170.89L181.6 170.49C180.85 169.83 180.34 169.28 180.07 168.86 179.57 169.07 179.14 169.3 178.79 169.55 178.44 169.79 178.09 170.12 177.75 170.51 177.27 171.05 176.94 171.58 176.76 172.11 176.64 172.44 176.58 172.8 176.57 173.2 176.56 173.6 176.62 173.97 176.74 174.31 176.9 174.76 177.19 175.16 177.6 175.52 177.84 175.73 178.08 175.88 178.32 175.98 178.56 176.08 178.79 176.14 179 176.16 179.21 176.17 179.43 176.14 179.67 176.06 179.91 175.98 180.17 175.84 180.47 175.64 180.58 175.56 180.81 175.38 181.16 175.09 181.51 174.81 181.79 174.59 181.99 174.44 182.27 174.25 182.5 174.13 182.69 174.07 182.88 174.01 183.07 174.01 183.26 174.06 183.45 174.11 183.65 174.22 183.87 174.41 184.17 174.67 184.32 175.02 184.33 175.46 184.34 175.9 184.15 176.33 183.76 176.77 183.49 177.08 183.19 177.31 182.86 177.46 182.53 177.61 182.25 177.67 182.02 177.65 181.84 177.54 181.57 177.32 181.19 177L180.84 177.39" fill="#FFFFFF"/><path d="M32.59 108.42 31.79 108.22C31.92 107.65 31.98 107.3 31.99 107.17 32 107.04 31.98 106.94 31.96 106.87 31.93 106.8 31.87 106.74 31.8 106.7 31.63 106.6 31.23 106.46 30.58 106.3L28.8 105.84 24.6 104.82 22.83 104.42C22.16 104.26 21.74 104.19 21.54 104.21 21.45 104.21 21.38 104.24 21.32 104.28 21.26 104.33 21.2 104.41 21.14 104.53 21.08 104.65 20.98 104.99 20.83 105.56L20.03 105.36C20.31 104.39 20.59 103.37 20.85 102.28 21.09 101.31 21.27 100.44 21.41 99.68L22.21 99.87C22.07 100.54 22 100.94 22 101.06 22 101.18 22.02 101.28 22.07 101.34 22.12 101.4 22.32 101.49 22.67 101.6 23.27 101.77 24.15 102 25.29 102.27L26.32 102.52C26.47 102.09 26.72 101.17 27.06 99.76 27.49 97.99 27.73 96.89 27.79 96.46L26.76 96.21C25.84 95.99 25.24 95.84 24.98 95.78 24.18 95.61 23.73 95.52 23.62 95.52 23.54 95.52 23.48 95.54 23.43 95.57 23.38 95.6 23.33 95.67 23.28 95.77 23.23 95.87 23.11 96.26 22.92 96.93L22.12 96.74C22.35 96 22.58 95.14 22.82 94.17 23.08 93.08 23.31 92.05 23.5 91.06L24.3 91.26C24.17 91.83 24.11 92.18 24.1 92.31 24.09 92.44 24.11 92.54 24.13 92.61 24.16 92.68 24.22 92.74 24.29 92.78 24.46 92.88 24.87 93.02 25.51 93.18L27.3 93.64 31.5 94.66 33.26 95.06C33.93 95.22 34.36 95.29 34.55 95.28 34.64 95.27 34.72 95.24 34.78 95.2 34.84 95.16 34.9 95.07 34.95 94.95 35 94.83 35.11 94.48 35.26 93.91L36.06 94.11C35.78 95.08 35.5 96.1 35.24 97.19 35 98.16 34.82 99.03 34.68 99.79L33.88 99.59C34.02 98.92 34.09 98.53 34.09 98.4 34.09 98.28 34.07 98.18 34.02 98.12 33.97 98.06 33.77 97.97 33.42 97.86 32.82 97.69 31.95 97.47 30.8 97.19L28.93 96.74C28.81 97.04 28.57 97.92 28.21 99.39 27.87 100.8 27.64 101.75 27.54 102.22 27.5 102.41 27.47 102.6 27.45 102.79L29.32 103.24C30.25 103.47 30.85 103.6 31.11 103.64 31.91 103.79 32.37 103.86 32.49 103.86 32.56 103.86 32.62 103.84 32.67 103.81 32.72 103.78 32.77 103.72 32.82 103.62 32.87 103.52 32.99 103.15 33.17 102.51L33.97 102.71C33.74 103.45 33.51 104.31 33.27 105.28 33.01 106.4 32.78 107.43 32.59 108.42M36.86 92.37C37.54 90.59 37.91 89.62 37.96 89.49 38.17 88.98 38.56 88.05 39.14 86.7L39.74 85.34C40.02 84.67 40.21 84.14 40.31 83.76L40.24 83.6C39.51 83.3 38.61 82.86 37.54 82.27L37.25 82.97C37.96 83.39 38.43 83.71 38.66 83.93 38.73 84 38.76 84.05 38.77 84.1 38.8 84.25 38.72 84.59 38.55 85.13 38.38 85.67 38.16 86.24 37.91 86.86 37.65 87.49 37.41 88.03 37.17 88.47 36.88 88.38 36.53 88.25 36.13 88.08L32.55 86.61C32.65 86.23 32.82 85.77 33.05 85.21 33.3 84.59 33.54 84.1 33.76 83.73 33.86 83.56 33.98 83.47 34.12 83.45 34.31 83.42 34.74 83.54 35.39 83.82L35.67 83.12 33.79 82.39 31.93 81.59 31.65 82.29C32.15 82.51 32.5 82.7 32.69 82.85 32.76 82.91 32.81 82.98 32.82 83.05 32.83 83.12 32.78 83.31 32.66 83.61 32.35 84.43 32.17 84.9 32.12 85.03 31.95 85.45 31.76 85.84 31.56 86.2L29.82 85.49C28.84 85.09 28.04 84.71 27.44 84.36 27.61 83.81 27.8 83.29 28.01 82.79 28.23 82.25 28.49 81.72 28.78 81.18 28.98 80.82 29.11 80.61 29.19 80.56 29.24 80.53 29.31 80.52 29.4 80.53 29.57 80.55 29.99 80.69 30.66 80.96L30.93 80.3C30.21 79.94 29.81 79.74 29.73 79.7L28.56 79.02 28.42 79.04C28.3 79.14 28.23 79.22 28.2 79.28 27.92 79.9 27.74 80.31 27.66 80.51L26.99 82.26C26.62 83.22 26.27 84.09 25.95 84.87 25.8 85.23 25.65 85.61 25.5 86L24.75 88 25.41 88.27C25.71 87.63 25.93 87.24 26.06 87.12 26.11 87.08 26.17 87.05 26.24 87.05 26.41 87.05 26.82 87.17 27.47 87.42 28.44 87.79 29 88.01 29.15 88.07L33 89.65C33.44 89.83 34.15 90.15 35.11 90.6 35.63 90.84 36.01 91.03 36.23 91.17 36.31 91.46 36.37 91.8 36.39 92.2L36.86 92.37M37.75 64.19C37.9 64.15 38.01 64.13 38.08 64.15 38.21 64.18 38.39 64.27 38.62 64.42 39.18 64.82 39.8 65.28 40.49 65.8L42.35 67.22 43.75 68.3C44.52 68.89 45.01 69.23 45.2 69.34 45.51 69.52 45.88 69.65 46.3 69.72 46.72 69.8 47.17 69.78 47.65 69.66 48.12 69.55 48.61 69.31 49.12 68.95 49.81 68.45 50.44 67.83 51.01 67.09 51.5 66.45 51.86 65.84 52.09 65.25 52.32 64.66 52.44 64.09 52.44 63.53 52.44 62.97 52.35 62.47 52.16 62.02 51.98 61.57 51.67 61.14 51.25 60.72 50.83 60.3 50.4 59.92 49.96 59.59L48.24 58.28C47.73 57.9 47.05 57.35 46.2 56.64 45.35 55.93 44.88 55.52 44.8 55.4 44.72 55.28 44.68 55.18 44.68 55.09 44.7 54.92 44.88 54.6 45.22 54.15L44.56 53.65 43.37 55.31C43.31 55.4 43.26 55.47 43.23 55.52 43.1 55.68 42.69 56.2 41.98 57.05L42.64 57.55C43.06 57.02 43.38 56.71 43.58 56.62 43.68 56.57 43.78 56.56 43.88 56.59 44.05 56.63 44.44 56.88 45.07 57.33 45.37 57.53 46.16 58.12 47.45 59.09L48.94 60.22C49.98 61.01 50.62 61.63 50.85 62.09 51.09 62.54 51.17 63.07 51.09 63.65 51.01 64.24 50.7 64.88 50.18 65.57 49.72 66.17 49.26 66.6 48.79 66.86 48.32 67.12 47.87 67.24 47.45 67.21 47.02 67.19 46.57 67.02 46.07 66.72 45.85 66.57 45.29 66.16 44.4 65.49L43.54 64.85 41.84 63.56C40.81 62.78 40.17 62.23 39.93 61.93 39.82 61.81 39.78 61.7 39.79 61.59 39.81 61.38 40.02 61 40.43 60.47L39.77 59.97 39.57 60.25 38.84 61.27 38.1 62.28 36.23 64.63 36.89 65.13 37.75 64.19ZM55.86 60.35C56.58 59.61 57.15 59.03 57.59 58.62 57.71 58.51 58.2 58.06 59.07 57.28L58.53 56.71C58.47 56.77 58.43 56.82 58.4 56.84 58.27 56.97 58.04 57.15 57.71 57.39 57.59 57.48 57.49 57.53 57.42 57.53 57.35 57.54 57.27 57.52 57.21 57.48 57.07 57.4 56.74 57.11 56.24 56.61 55.5 55.89 54.8 55.19 54.15 54.5L51 51.16C56.71 51.9 61.06 52.4 64.03 52.65 64.47 52.34 64.91 52.05 65.34 51.76L65.37 51.62C64.72 51.03 62.99 49.25 60.19 46.28 59.83 45.9 59.28 45.3 58.54 44.5 57.8 43.69 57.35 43.15 57.21 42.86 57.18 42.8 57.18 42.75 57.19 42.69 57.23 42.53 57.52 42.18 58.05 41.65L57.49 41.05C56.85 41.72 56.31 42.26 55.88 42.66 55.43 43.09 54.91 43.54 54.33 44.02L54.89 44.62C55.5 44.07 55.89 43.78 56.07 43.76 56.18 43.75 56.32 43.82 56.49 43.97 56.94 44.34 58.3 45.73 60.57 48.13L62 49.7C60.77 49.65 59.15 49.5 57.14 49.25 54.34 48.91 51.91 48.57 49.85 48.24L49.26 48.85 48.31 49.79C48.04 50.05 47.61 50.42 47.01 50.92L47.57 51.52C48.07 51.11 48.38 50.87 48.5 50.8 48.62 50.73 48.73 50.71 48.81 50.71 48.9 50.72 49 50.76 49.11 50.84 49.22 50.92 49.44 51.12 49.75 51.44L51.61 53.36 53.63 55.5C54.19 56.09 54.63 56.58 54.96 56.97 55.53 57.66 55.88 58.1 56.02 58.3 56.11 58.45 56.17 58.55 56.17 58.62 56.17 58.69 56.16 58.76 56.13 58.82 56.08 58.91 55.8 59.22 55.31 59.73L55.86 60.35ZM65.1 35.58C64.32 36.21 63.48 36.85 62.57 37.51 61.76 38.1 61.03 38.6 60.38 39.02L60.86 39.69C61.42 39.32 61.74 39.11 61.84 39.07 61.94 39.03 62.02 39.02 62.08 39.03 62.14 39.04 62.2 39.07 62.26 39.13 62.41 39.26 62.73 39.64 63.21 40.25 63.44 40.52 63.91 41.15 64.63 42.14L66.9 45.26C67.27 45.77 67.66 46.33 68.08 46.94 68.35 47.37 68.5 47.62 68.53 47.69 68.55 47.74 68.56 47.8 68.54 47.86 68.53 47.92 68.47 48 68.38 48.1 68.31 48.18 68.01 48.42 67.5 48.82L67.99 49.49C68.59 49 69.28 48.46 70.08 47.88 71 47.21 71.88 46.61 72.71 46.05L72.22 45.38C71.73 45.72 71.42 45.92 71.31 45.97 71.19 46.02 71.1 46.05 71.02 46.04 70.94 46.04 70.87 46.01 70.8 45.95 70.64 45.83 70.37 45.52 70 45L68.98 43.66 66.79 40.65C66.72 40.56 66.25 39.89 65.37 38.66 65.11 38.3 64.94 38.05 64.85 37.92 64.69 37.67 64.6 37.49 64.57 37.38 64.55 37.32 64.55 37.26 64.56 37.2 64.58 37.14 64.63 37.06 64.71 36.97 64.79 36.88 65.08 36.64 65.58 36.25L65.1 35.58M80.73 41.31C80.55 40.21 80.31 38.29 80.01 35.55L79.66 32.34 79.49 30.68C79.34 29.31 79.31 28.53 79.39 28.34 79.44 28.23 79.71 28 80.21 27.66L79.81 26.94 78.09 27.97 76 29.05 76.4 29.77C76.65 29.64 76.95 29.5 77.32 29.33 77.48 29.25 77.59 29.21 77.63 29.21 77.69 29.21 77.75 29.22 77.8 29.25 77.85 29.28 77.91 29.34 77.96 29.43 77.99 29.49 78.03 29.56 78.05 29.63 78.12 29.88 78.21 30.4 78.32 31.18 78.49 32.29 78.58 32.91 78.59 33.04L79.26 38.53 74.41 34.65C74.35 34.6 74.31 34.56 74.27 34.53 74.23 34.5 73.97 34.29 73.49 33.9 72.66 33.23 72.2 32.82 72.11 32.66 72.07 32.58 72.05 32.5 72.07 32.42 72.09 32.34 72.15 32.26 72.25 32.17 72.43 32.01 72.74 31.8 73.19 31.55L72.79 30.83 69.94 32.49C69.66 32.64 68.87 33.06 67.56 33.72L67.96 34.44C68.47 34.17 68.84 34.03 69.05 34.03 69.19 34.03 69.48 34.18 69.91 34.47 70.35 34.77 71.61 35.74 73.7 37.39L76.37 39.49C77.36 40.28 78.39 41.11 79.48 41.98L80.73 41.31ZM87.79 37.66C89.56 36.94 90.51 36.56 90.65 36.5 91.17 36.31 92.12 35.96 93.5 35.46L94.9 34.97C95.58 34.71 96.1 34.49 96.45 34.31L96.52 34.16C96.24 33.42 95.95 32.47 95.65 31.28L94.95 31.55C95.12 32.36 95.21 32.92 95.21 33.24 95.21 33.33 95.19 33.4 95.16 33.44 95.07 33.56 94.77 33.74 94.25 33.98 93.74 34.22 93.17 34.46 92.55 34.69 91.91 34.93 91.35 35.12 90.87 35.25 90.74 34.97 90.6 34.63 90.44 34.22L89.07 30.6C89.42 30.42 89.87 30.22 90.43 30.01 91.05 29.77 91.58 29.61 92 29.53 92.19 29.49 92.34 29.51 92.45 29.6 92.6 29.72 92.8 30.11 93.05 30.78L93.75 30.51 93 28.63 92.32 26.72 91.62 26.99C91.8 27.51 91.9 27.89 91.92 28.13 91.92 28.23 91.9 28.3 91.86 28.36 91.82 28.42 91.65 28.51 91.34 28.63 90.53 28.96 90.07 29.15 89.94 29.2 89.52 29.36 89.1 29.49 88.7 29.59L88.03 27.83C87.65 26.83 87.39 26 87.23 25.32 87.74 25.07 88.26 24.86 88.77 24.66 89.31 24.45 89.88 24.28 90.47 24.13 90.87 24.03 91.11 23.98 91.21 24.01 91.27 24.03 91.33 24.07 91.38 24.14 91.48 24.28 91.66 24.68 91.93 25.35L92.6 25.1C92.37 24.33 92.25 23.9 92.22 23.82L91.92 22.5 91.82 22.41C91.66 22.39 91.55 22.39 91.5 22.42 90.86 22.64 90.44 22.78 90.23 22.86L88.5 23.56C87.54 23.94 86.67 24.28 85.88 24.58 85.52 24.72 85.14 24.86 84.75 25.02L82.77 25.83 83.02 26.5C83.7 26.28 84.13 26.18 84.31 26.19 84.38 26.2 84.44 26.22 84.49 26.27 84.61 26.39 84.8 26.77 85.06 27.42 85.45 28.39 85.67 28.94 85.73 29.09L87.2 32.98C87.37 33.43 87.62 34.16 87.94 35.17 88.12 35.72 88.24 36.12 88.29 36.38 88.14 36.64 87.92 36.91 87.64 37.2L87.79 37.66M95.95 21.74C96.69 21.62 97.13 21.59 97.29 21.63 97.36 21.65 97.41 21.69 97.46 21.75 97.55 21.89 97.69 22.33 97.87 23.08L98.33 24.98 99.08 28.33 99.64 30.97C99.73 31.45 99.78 31.81 99.79 32.06 99.8 32.19 99.79 32.28 99.77 32.33 99.75 32.38 99.7 32.42 99.63 32.46 99.51 32.53 99.12 32.65 98.44 32.83L98.62 33.63C99.4 33.41 100.24 33.19 101.16 32.98 102.19 32.75 103.23 32.54 104.26 32.35L104.08 31.55C103.5 31.67 103.15 31.73 103.02 31.73 102.89 31.73 102.8 31.72 102.74 31.7 102.68 31.67 102.63 31.64 102.59 31.6 102.52 31.51 102.44 31.3 102.34 30.96 102.3 30.79 102.13 30.09 101.84 28.86 101.61 27.85 101.39 26.89 101.18 25.99 101.05 25.42 100.81 24.28 100.46 22.57 100.31 21.81 100.21 21.31 100.18 21.09 100.45 20.98 100.73 20.89 101.02 20.82 101.67 20.67 102.13 20.61 102.41 20.65 102.83 20.71 103.22 20.89 103.57 21.2 103.92 21.51 104.15 21.94 104.28 22.5 104.4 23.05 104.39 23.57 104.24 24.07 104.09 24.57 103.85 24.95 103.52 25.2 103.19 25.46 102.66 25.65 101.94 25.79L101.91 26.11C102.12 26.2 102.35 26.36 102.6 26.58 103.1 27.02 103.73 27.63 104.49 28.42L107.13 31.17C107.29 31.36 107.4 31.51 107.46 31.64 107.92 31.49 108.4 31.36 108.88 31.25 109.29 31.16 109.97 31.03 110.91 30.87L110.73 30.07C110.45 30.13 110.25 30.15 110.15 30.13 110.04 30.11 109.93 30.06 109.8 29.97 109.67 29.88 109.32 29.6 108.73 29.1 108.69 29.07 108.42 28.81 107.93 28.34L106.06 26.57C106.01 26.53 105.97 26.48 105.92 26.42 105.87 26.37 105.72 26.22 105.47 25.99 105.21 25.75 104.98 25.52 104.77 25.28 105.63 24.72 106.22 24.09 106.53 23.39 106.85 22.69 106.92 21.98 106.76 21.25 106.62 20.63 106.34 20.15 105.91 19.8 105.48 19.45 105.02 19.25 104.52 19.22 104.02 19.19 103.3 19.28 102.36 19.49 101.87 19.6 101.27 19.76 100.53 19.96 100.09 20.09 99.55 20.23 98.92 20.37 98.18 20.53 97.61 20.66 97.21 20.73 96.38 20.88 95.9 20.98 95.76 21.01L95.95 21.74M120.34 20.49C120.31 19.87 120.3 19.36 120.31 18.98 120.32 18.6 120.35 18.2 120.41 17.79L120.32 17.58C119.85 17.4 119.3 17.27 118.67 17.21 118.05 17.14 117.4 17.14 116.75 17.19 116.12 17.24 115.51 17.36 114.92 17.55 114.33 17.74 113.81 18.01 113.36 18.37 112.91 18.73 112.56 19.21 112.32 19.82 112.08 20.43 111.99 21.07 112.04 21.76 112.08 22.25 112.2 22.71 112.4 23.12 112.6 23.53 112.87 23.88 113.22 24.15 113.57 24.42 114.02 24.62 114.56 24.73 114.92 24.81 115.67 24.91 116.81 25.05 117.6 25.16 118.16 25.29 118.49 25.43 118.81 25.57 119.06 25.77 119.23 26.04 119.4 26.31 119.5 26.63 119.53 27.02 119.57 27.48 119.5 27.9 119.32 28.28 119.14 28.66 118.83 28.97 118.39 29.22 117.95 29.46 117.43 29.61 116.85 29.66 116.18 29.72 115.55 29.62 114.95 29.38 114.36 29.14 113.93 28.83 113.67 28.47 113.53 27.82 113.46 27.27 113.43 26.82L112.61 26.89C112.72 28.32 112.72 29.4 112.59 30.11 113.33 30.4 114 30.58 114.61 30.68 115.22 30.77 115.9 30.78 116.66 30.72 117.7 30.63 118.58 30.41 119.29 30.06 119.74 29.84 120.17 29.52 120.57 29.11 120.98 28.7 121.29 28.26 121.5 27.79 121.78 27.17 121.88 26.46 121.82 25.68 121.78 25.23 121.69 24.83 121.54 24.48 121.39 24.13 121.22 23.85 121.02 23.62 120.82 23.4 120.55 23.21 120.23 23.06 119.9 22.91 119.49 22.78 118.98 22.7 118.78 22.67 118.36 22.63 117.71 22.57 117.06 22.51 116.56 22.46 116.19 22.42 115.71 22.33 115.34 22.23 115.09 22.1 114.84 21.97 114.64 21.79 114.48 21.55 114.33 21.31 114.23 20.99 114.2 20.58 114.15 20.01 114.34 19.5 114.76 19.04 115.18 18.58 115.81 18.32 116.65 18.25 117.23 18.2 117.77 18.26 118.26 18.43 118.75 18.6 119.1 18.81 119.31 19.06 119.39 19.35 119.46 19.85 119.53 20.56L120.34 20.49M130.86 17.19C129.86 17.21 128.8 17.21 127.68 17.18 126.68 17.15 125.79 17.11 125.02 17.04L125 17.87C125.67 17.91 126.05 17.95 126.16 17.98 126.26 18.01 126.34 18.05 126.37 18.09 126.41 18.13 126.44 18.2 126.46 18.28 126.5 18.48 126.52 18.97 126.53 19.75 126.54 20.1 126.54 20.89 126.5 22.11L126.41 25.97C126.4 26.6 126.37 27.28 126.32 28.02 126.28 28.52 126.24 28.81 126.22 28.88 126.21 28.94 126.18 28.98 126.13 29.03 126.08 29.07 125.99 29.1 125.86 29.12 125.76 29.14 125.38 29.15 124.72 29.16L124.7 29.98C125.47 29.95 126.35 29.95 127.34 29.97 128.47 30 129.54 30.05 130.54 30.12L130.56 29.3C129.96 29.27 129.6 29.24 129.48 29.21 129.36 29.18 129.26 29.14 129.21 29.09 129.15 29.04 129.12 28.98 129.09 28.89 129.03 28.7 129.01 28.28 129.03 27.65L129.03 25.96 129.12 22.24C129.12 22.12 129.15 21.31 129.2 19.8 129.21 19.36 129.23 19.06 129.24 18.89 129.27 18.59 129.3 18.39 129.35 18.29 129.37 18.23 129.4 18.18 129.46 18.14 129.51 18.1 129.6 18.07 129.72 18.05 129.84 18.02 130.22 18.01 130.85 18.01L130.86 17.19M135.02 30.49C136.15 30.59 137.14 30.71 138 30.82 138.8 30.93 139.79 31.09 140.95 31.3L141.05 30.56C140.33 30.44 139.91 30.33 139.78 30.23 139.65 30.14 139.58 30.01 139.56 29.84 139.52 29.56 139.6 28.76 139.78 27.44L140.53 21.94C140.73 20.48 140.85 19.64 140.9 19.43L142.19 19.61C142.88 19.7 143.47 19.81 143.96 19.93 144.11 19.96 144.21 20 144.24 20.03 144.27 20.08 144.3 20.22 144.3 20.44 144.3 20.89 144.28 21.35 144.23 21.84L145.05 21.95C145.24 20.66 145.35 19.99 145.36 19.94 145.41 19.66 145.49 19.34 145.6 18.97L145.52 18.86C145.23 18.84 144.94 18.82 144.66 18.79 144.14 18.73 143.11 18.6 141.57 18.39L137.87 17.88C136.38 17.68 135.37 17.53 134.84 17.44 134.52 17.39 134.22 17.33 133.93 17.27L133.84 17.35C133.84 17.67 133.83 17.96 133.81 18.24 133.79 18.4 133.71 19.11 133.57 20.37L134.38 20.48C134.47 19.94 134.58 19.47 134.71 19.05 134.77 18.87 134.81 18.77 134.86 18.74 134.89 18.71 135.01 18.71 135.21 18.71 135.71 18.73 136.28 18.79 136.93 18.88L138.22 19.06C138.22 19.24 138.12 20.08 137.91 21.58L137.16 27.07C137 28.4 136.87 29.18 136.77 29.44 136.7 29.6 136.59 29.71 136.44 29.77 136.29 29.82 135.85 29.81 135.1 29.74L135.02 30.49M153.59 27.25C153.53 26.91 153.34 25.98 153.02 24.46 152.82 23.5 152.6 22.64 152.35 21.88 152.18 21.36 152.03 21.01 151.91 20.8 151.79 20.6 151.57 20.34 151.27 20.04 150.9 20.03 150.55 20.02 150.21 20L148.21 19.84 148.02 20.5C148.47 20.63 148.73 20.72 148.8 20.78 148.91 20.88 149.06 21.13 149.27 21.54 149.59 22.16 149.89 22.94 150.18 23.89 150.54 25.06 150.86 26.24 151.14 27.42 151.25 27.91 151.28 28.22 151.24 28.36L150.76 30.05C150.63 30.52 150.45 31.1 150.24 31.76 150.14 32.05 150.06 32.22 150 32.27 149.94 32.32 149.85 32.34 149.72 32.33 149.59 32.33 149.19 32.24 148.51 32.07L148.28 32.86C149.19 33.07 150.09 33.3 150.97 33.54 151.87 33.8 152.87 34.1 153.98 34.46L154.2 33.67C153.56 33.48 153.19 33.35 153.08 33.28 152.97 33.21 152.9 33.13 152.87 33.05 152.84 32.96 152.85 32.74 152.91 32.39 152.97 32.04 153.09 31.48 153.28 30.72L153.71 29.22C153.8 28.91 153.87 28.69 153.93 28.56 154.02 28.38 154.17 28.18 154.38 27.97 154.69 27.65 155.44 26.96 156.65 25.89 157.86 24.82 158.97 23.91 159.97 23.15L160.08 22.75 158.62 22.34C158.49 22.49 158.18 22.8 157.7 23.27 156.31 24.66 155.47 25.48 155.19 25.75L153.59 27.25M171.28 34.71C170.52 35.96 170.12 37.14 170.09 38.28 170.06 39.41 170.34 40.45 170.93 41.4 171.51 42.35 172.4 43.18 173.58 43.9 174.67 44.57 175.75 44.99 176.82 45.15 177.6 45.27 178.38 45.23 179.16 45.04 179.94 44.85 180.66 44.51 181.29 44.04 182.15 43.4 182.88 42.59 183.49 41.6 183.85 41.02 184.11 40.45 184.29 39.89 184.47 39.33 184.57 38.78 184.58 38.24 184.6 37.69 184.5 37.09 184.29 36.44 184.08 35.78 183.75 35.17 183.3 34.62 182.69 33.88 181.9 33.21 180.95 32.63 179.99 32.04 179.02 31.64 178.03 31.42 177.26 31.25 176.45 31.25 175.6 31.42 174.75 31.59 173.97 31.94 173.24 32.48 172.53 33 171.87 33.75 171.28 34.71M173.99 35.72C174.51 34.87 175.11 34.16 175.79 33.61 176.47 33.05 177.18 32.76 177.94 32.73 178.7 32.7 179.46 32.92 180.23 33.39 180.9 33.8 181.38 34.25 181.64 34.72 181.91 35.2 182.06 35.74 182.1 36.35 182.14 36.96 182.05 37.62 181.84 38.33 181.63 39.04 181.3 39.76 180.85 40.5 180.19 41.57 179.48 42.4 178.73 42.97 177.97 43.54 177.23 43.82 176.52 43.82 175.8 43.82 175.11 43.61 174.45 43.2 173.74 42.76 173.21 42.22 172.89 41.56 172.57 40.91 172.48 40.07 172.63 39.07 172.78 38.07 173.23 36.95 173.99 35.72M190.59 50.44C191.62 49.2 192.47 48.18 193.13 47.38L192.5 46.85C192.14 47.26 191.9 47.51 191.76 47.59 191.66 47.66 191.57 47.67 191.49 47.64 191.28 47.56 190.87 47.27 190.26 46.76 190.05 46.58 189.65 46.23 189.08 45.7L189.89 44.72C190.9 43.5 191.63 42.68 192.07 42.26 192.21 42.36 192.47 42.56 192.85 42.85 193.23 43.14 193.46 43.32 193.54 43.39 193.96 43.74 194.3 44.07 194.57 44.38 194.84 44.69 194.99 44.91 195.03 45.04 195.05 45.08 195.05 45.12 195.04 45.16 195.02 45.22 194.93 45.35 194.77 45.56 194.47 45.97 194.27 46.23 194.18 46.34L194.76 46.82C195.02 46.51 195.35 46.16 195.74 45.77 196.13 45.38 196.46 45.07 196.73 44.84L196.75 44.69C196.36 44.29 195.93 43.89 195.45 43.49L191.96 40.74 189.48 38.59 188.95 39.23C189.4 39.65 189.66 39.91 189.75 40.02 189.84 40.13 189.89 40.21 189.9 40.26 189.91 40.31 189.9 40.37 189.87 40.43 189.79 40.62 189.6 40.89 189.31 41.26 188.29 42.53 187.75 43.19 187.7 43.26L185.28 46.18C185.07 46.43 184.73 46.84 184.24 47.4 183.76 47.96 183.47 48.29 183.36 48.39 183.18 48.56 183.04 48.65 182.95 48.67 182.89 48.68 182.83 48.68 182.77 48.65 182.66 48.61 182.31 48.36 181.74 47.9L181.21 48.54C182.11 49.22 182.76 49.73 183.16 50.07L185.9 52.43 186.36 51.88C185.75 51.29 185.41 50.95 185.35 50.85 185.29 50.75 185.27 50.66 185.28 50.58 185.3 50.46 185.48 50.17 185.83 49.69 186.18 49.21 186.82 48.41 187.76 47.28L188.42 46.48C188.69 46.7 188.88 46.85 188.99 46.94 189.74 47.56 190.27 48.05 190.57 48.4 190.68 48.54 190.73 48.66 190.71 48.75 190.68 48.93 190.42 49.31 189.94 49.92L190.59 50.44M198.74 65.75C199.45 66.63 200.06 67.42 200.57 68.12 201.05 68.77 201.62 69.59 202.29 70.57L202.9 70.12C202.49 69.52 202.27 69.14 202.25 68.98 202.23 68.82 202.27 68.68 202.37 68.55 202.55 68.33 203.17 67.83 204.24 67.04L208.71 63.75C209.9 62.88 210.59 62.38 210.77 62.27L211.54 63.32C211.96 63.88 212.29 64.38 212.55 64.81 212.63 64.95 212.67 65.04 212.67 65.08 212.66 65.14 212.58 65.25 212.41 65.41 212.09 65.73 211.74 66.03 211.36 66.33L211.85 66.99C212.91 66.23 213.46 65.84 213.51 65.82 213.75 65.66 214.03 65.49 214.37 65.32L214.39 65.19C214.2 64.97 214.02 64.75 213.84 64.53 213.52 64.12 212.9 63.29 211.98 62.04L209.77 59.03C208.88 57.82 208.28 56.99 207.97 56.56 207.78 56.29 207.62 56.03 207.46 55.79L207.34 55.78C207.11 56 206.89 56.2 206.69 56.38 206.56 56.48 206 56.92 204.99 57.69L205.48 58.35C205.92 58.04 206.34 57.78 206.74 57.59 206.9 57.51 207.02 57.47 207.07 57.48 207.11 57.49 207.2 57.57 207.33 57.71 207.66 58.08 208.02 58.53 208.41 59.06L209.18 60.11C209.05 60.24 208.37 60.75 207.16 61.64L202.69 64.93C201.63 65.74 200.97 66.2 200.72 66.3 200.55 66.36 200.4 66.36 200.25 66.29 200.11 66.22 199.8 65.89 199.34 65.31L198.74 65.75M204.96 74.56C205.92 76.21 206.44 77.1 206.51 77.23 206.78 77.72 207.25 78.61 207.93 79.9L208.61 81.22C208.96 81.86 209.25 82.34 209.48 82.66L209.64 82.71C210.33 82.33 211.23 81.91 212.37 81.45L212.01 80.79C211.23 81.07 210.69 81.24 210.38 81.28 210.29 81.29 210.22 81.28 210.18 81.25 210.05 81.17 209.83 80.9 209.52 80.43 209.21 79.96 208.9 79.43 208.58 78.85 208.25 78.25 207.99 77.72 207.79 77.26 208.05 77.09 208.37 76.9 208.75 76.69L212.14 74.83C212.37 75.15 212.63 75.57 212.91 76.09 213.23 76.67 213.46 77.17 213.61 77.57 213.68 77.75 213.67 77.91 213.6 78.03 213.5 78.2 213.14 78.45 212.51 78.78L212.87 79.44 214.62 78.44 216.42 77.5 216.06 76.84C215.57 77.09 215.21 77.24 214.97 77.29 214.88 77.31 214.8 77.3 214.74 77.27 214.68 77.24 214.57 77.08 214.4 76.79 213.96 76.04 213.71 75.6 213.64 75.48 213.42 75.08 213.24 74.69 213.08 74.31L214.73 73.41C215.66 72.9 216.46 72.52 217.11 72.27 217.42 72.75 217.71 73.22 217.97 73.7 218.25 74.21 218.5 74.75 218.74 75.31 218.9 75.69 218.97 75.93 218.96 76.02 218.95 76.08 218.92 76.14 218.85 76.21 218.73 76.33 218.35 76.56 217.73 76.92L218.07 77.55C218.8 77.22 219.2 77.03 219.29 76.99L220.55 76.51 220.62 76.39C220.62 76.23 220.6 76.12 220.57 76.07 220.27 75.47 220.07 75.07 219.96 74.87L219.02 73.25C218.51 72.35 218.05 71.54 217.65 70.8 217.46 70.46 217.26 70.11 217.05 69.74L215.97 67.9 215.34 68.24C215.65 68.88 215.81 69.29 215.82 69.47 215.82 69.54 215.8 69.6 215.76 69.66 215.66 69.79 215.31 70.04 214.7 70.39 213.8 70.91 213.27 71.21 213.14 71.29L209.49 73.29C209.07 73.52 208.38 73.87 207.42 74.33 206.9 74.59 206.52 74.76 206.27 74.85 206 74.74 205.7 74.56 205.37 74.32L204.96 74.56M210.29 84.37C210.42 84.57 210.61 85 210.86 85.66 210.99 86 211.12 86.4 211.26 86.89L211.94 86.63C212.67 86.77 213.28 86.89 213.76 87 214.25 87.11 214.7 87.21 215.1 87.3 215.51 87.39 216.12 87.54 216.93 87.75L214.34 90.78C213.8 91.42 213.45 91.88 213.28 92.15 213.52 92.64 213.72 93.09 213.88 93.5 213.94 93.64 214.17 94.31 214.57 95.49L215.34 95.19 215.26 94.99C215.23 94.91 215.2 94.77 215.17 94.58 215.15 94.5 215.15 94.43 215.17 94.35 215.18 94.28 215.22 94.19 215.28 94.09 215.39 93.91 215.61 93.59 215.94 93.14 216 93.06 216.18 92.82 216.5 92.42L217.93 90.61C218.01 90.51 218.25 90.21 218.66 89.73 219.24 89.03 219.57 88.63 219.65 88.54L220.06 88.64 221.76 89.1C223.26 89.51 224.3 89.82 224.87 90.04 225.18 90.16 225.37 90.25 225.44 90.32 225.56 90.44 225.7 90.71 225.87 91.13L226.64 90.83C226.37 90.26 226.19 89.87 226.11 89.65 226.02 89.41 225.89 89.01 225.73 88.46L225.04 88.73 222.45 88.11 220.41 87.62 221.82 85.97C222.19 85.54 222.39 85.3 222.44 85.24 222.85 84.72 223.14 84.35 223.3 84.11 223.46 83.87 223.58 83.67 223.65 83.5 223.72 83.33 223.78 83.14 223.82 82.92 223.64 82.66 223.44 82.37 223.23 82.03L221.88 79.97 221.25 80.32C221.4 80.65 221.49 80.85 221.53 80.94 221.58 81.07 221.6 81.19 221.59 81.3 221.57 81.46 221.47 81.73 221.27 82.09 220.99 82.63 220.59 83.21 220.09 83.84L218.59 85.73 217.7 86.82 215.67 86.26C215.45 86.18 214.96 86.04 214.2 85.83 213.24 85.55 212.55 85.34 212.15 85.2 211.85 85.1 211.67 85.01 211.59 84.96 211.55 84.93 211.5 84.89 211.46 84.83 211.4 84.75 211.27 84.5 211.07 84.06L210.29 84.37M215.5 98.61 215.89 100.7 216.69 100.52C216.56 99.8 216.51 99.36 216.57 99.2 216.61 99.09 216.7 99.02 216.84 98.99 217.04 98.95 217.59 98.98 218.48 99.1L219.64 99.26 220.67 103.93 218.87 105.14C218.56 105.35 218.33 105.48 218.18 105.51 218.06 105.54 217.96 105.51 217.89 105.43 217.82 105.35 217.68 104.94 217.5 104.22L216.69 104.4 217.46 107.55 217.94 110.07 218.75 109.89C218.73 109.71 218.72 109.57 218.71 109.48 218.67 109.19 218.65 109.01 218.66 108.94 218.67 108.87 218.69 108.8 218.73 108.73 218.77 108.66 218.83 108.59 218.93 108.51L219.67 107.97 220.78 107.14 229.25 101.05 228.96 99.76 226.75 99.41 220.46 98.33C219.27 98.13 218.47 97.99 218.06 97.91 217.19 97.74 216.69 97.64 216.56 97.59 216.42 97.55 216.32 97.5 216.24 97.44 216.17 97.39 216.11 97.32 216.06 97.23 216.01 97.14 215.91 96.86 215.77 96.38L214.97 96.56 215.5 98.61ZM225.8 100.31 221.61 103.24C221.47 102.7 221.32 102.08 221.16 101.39 221 100.67 220.87 100.03 220.77 99.46L225.8 100.31ZM228.22 119.71C228.85 119.68 229.35 119.68 229.74 119.69 230.12 119.7 230.52 119.74 230.92 119.8L231.14 119.71C231.33 119.24 231.46 118.69 231.52 118.07 231.59 117.45 231.6 116.8 231.56 116.15 231.51 115.52 231.4 114.91 231.22 114.31 231.04 113.72 230.77 113.2 230.42 112.74 230.06 112.29 229.58 111.93 228.99 111.68 228.39 111.43 227.74 111.33 227.05 111.38 226.56 111.42 226.11 111.53 225.69 111.72 225.27 111.91 224.93 112.18 224.65 112.53 224.37 112.88 224.17 113.32 224.05 113.87 223.97 114.23 223.86 114.98 223.71 116.12 223.59 116.91 223.46 117.47 223.31 117.79 223.17 118.11 222.96 118.35 222.7 118.52 222.43 118.68 222.11 118.78 221.72 118.81 221.26 118.84 220.84 118.77 220.46 118.59 220.08 118.41 219.77 118.1 219.53 117.65 219.29 117.21 219.15 116.69 219.11 116.1 219.06 115.43 219.16 114.8 219.41 114.21 219.66 113.62 219.97 113.2 220.33 112.93 220.99 112.8 221.54 112.73 221.99 112.71L221.93 111.89C220.49 111.99 219.42 111.97 218.7 111.84 218.41 112.58 218.21 113.25 218.11 113.85 218.01 114.46 217.99 115.14 218.05 115.9 218.13 116.94 218.34 117.82 218.69 118.54 218.91 118.99 219.22 119.42 219.62 119.84 220.02 120.25 220.46 120.56 220.92 120.78 221.54 121.06 222.25 121.18 223.03 121.12 223.48 121.09 223.88 121 224.23 120.86 224.58 120.71 224.87 120.54 225.09 120.34 225.31 120.14 225.5 119.88 225.66 119.56 225.82 119.24 225.94 118.82 226.04 118.31 226.07 118.12 226.12 117.69 226.18 117.05 226.24 116.4 226.3 115.9 226.34 115.53 226.43 115.05 226.54 114.69 226.67 114.44 226.8 114.19 226.99 113.99 227.23 113.84 227.47 113.69 227.8 113.6 228.21 113.56 228.78 113.52 229.29 113.71 229.74 114.14 230.19 114.57 230.45 115.2 230.52 116.03 230.56 116.61 230.49 117.15 230.32 117.63 230.15 118.11 229.93 118.46 229.67 118.67 229.38 118.74 228.88 118.81 228.17 118.87L228.22 119.71M42.9 196.88 44.27 198.51 44.88 197.96C44.41 197.4 44.15 197.04 44.12 196.87 44.1 196.76 44.15 196.65 44.25 196.55 44.4 196.41 44.9 196.17 45.73 195.84L46.82 195.41 50.02 198.96 49.05 200.9C48.89 201.24 48.75 201.46 48.63 201.56 48.54 201.64 48.44 201.67 48.34 201.63 48.24 201.59 47.92 201.31 47.4 200.77L46.79 201.32 49.01 203.68 50.67 205.64 51.28 205.09C51.17 204.95 51.1 204.83 51.04 204.76 50.86 204.53 50.76 204.38 50.73 204.31 50.7 204.24 50.69 204.17 50.69 204.1 50.69 204.03 50.71 203.93 50.75 203.81L51.13 202.97 51.68 201.7 56.05 192.22 55.16 191.24 53.06 192.03 47.05 194.19C45.91 194.6 45.15 194.87 44.76 195.01 43.92 195.29 43.44 195.44 43.3 195.48 43.16 195.51 43.04 195.52 42.96 195.51 42.87 195.5 42.79 195.47 42.7 195.41 42.61 195.36 42.39 195.16 42.03 194.81L41.42 195.36 42.9 196.88ZM52.7 193.27 50.5 197.89C50.11 197.49 49.67 197.02 49.2 196.5 48.71 195.95 48.28 195.46 47.91 195.01L52.7 193.27ZM54.51 208.95C55.41 209.64 56.19 210.26 56.85 210.82 57.47 211.34 58.22 212 59.1 212.79L59.58 212.21C59.04 211.72 58.74 211.41 58.68 211.26 58.62 211.11 58.63 210.96 58.7 210.81 58.82 210.56 59.31 209.92 60.16 208.89L63.72 204.64C64.67 203.51 65.22 202.87 65.37 202.71L66.37 203.55C66.91 204 67.35 204.4 67.7 204.76 67.81 204.87 67.87 204.95 67.88 205 67.89 205.06 67.83 205.19 67.71 205.38 67.48 205.76 67.21 206.14 66.91 206.52L67.54 207.05C68.39 206.06 68.84 205.55 68.87 205.52 69.06 205.31 69.3 205.08 69.59 204.83L69.58 204.7C69.34 204.53 69.11 204.36 68.89 204.19 68.48 203.86 67.68 203.2 66.49 202.21L63.63 199.81C62.47 198.84 61.7 198.18 61.3 197.83 61.05 197.62 60.83 197.4 60.62 197.2L60.5 197.22C60.33 197.49 60.17 197.74 60.01 197.96 59.91 198.09 59.46 198.64 58.67 199.64L59.3 200.17C59.66 199.76 60.01 199.42 60.35 199.13 60.49 199.01 60.59 198.95 60.64 198.95 60.68 198.95 60.79 199 60.95 199.12 61.36 199.4 61.81 199.76 62.32 200.18L63.32 201.01C63.22 201.16 62.69 201.82 61.72 202.98L58.16 207.24C57.32 208.28 56.79 208.87 56.57 209.04 56.42 209.14 56.27 209.17 56.11 209.14 55.95 209.11 55.58 208.86 54.99 208.4L54.51 208.95M76.59 223.97 78.5 224.91 78.84 224.16C78.18 223.84 77.8 223.6 77.71 223.46 77.64 223.37 77.64 223.25 77.7 223.12 77.79 222.93 78.14 222.52 78.77 221.87L79.59 221.03 83.95 223 83.84 225.16C83.82 225.54 83.79 225.8 83.72 225.93 83.67 226.04 83.59 226.1 83.48 226.11 83.37 226.12 82.97 225.98 82.28 225.7L81.94 226.45 84.93 227.72 87.24 228.84 87.58 228.09C87.43 228 87.31 227.93 87.23 227.88 86.97 227.74 86.82 227.65 86.76 227.6 86.71 227.55 86.66 227.49 86.63 227.42 86.6 227.35 86.58 227.25 86.57 227.13L86.58 226.21 86.58 224.82 86.76 214.38 85.55 213.84 83.95 215.41 79.32 219.81C78.44 220.64 77.86 221.2 77.55 221.48 76.9 222.07 76.51 222.41 76.4 222.5 76.28 222.59 76.18 222.64 76.1 222.67 76.01 222.7 75.92 222.7 75.82 222.69 75.72 222.68 75.44 222.58 74.97 222.41L74.63 223.16 76.59 223.97ZM84.12 216.72 83.97 221.83C83.45 221.62 82.87 221.37 82.22 221.08 81.55 220.78 80.96 220.5 80.44 220.23L84.12 216.72ZM94.21 218.37C94.92 218.61 95.33 218.78 95.45 218.89 95.5 218.94 95.53 219 95.54 219.08 95.56 219.24 95.47 219.7 95.29 220.45L94.82 222.35 93.93 225.67 93.2 228.27C93.05 228.73 92.93 229.08 92.83 229.3 92.78 229.42 92.73 229.5 92.69 229.53 92.65 229.56 92.59 229.58 92.51 229.58 92.37 229.59 91.96 229.52 91.28 229.36L91.07 230.16C91.86 230.32 92.71 230.52 93.62 230.77 94.64 231.04 95.66 231.34 96.66 231.66L96.87 230.86C96.3 230.69 95.96 230.59 95.85 230.53 95.74 230.48 95.66 230.42 95.62 230.37 95.58 230.32 95.55 230.27 95.54 230.21 95.52 230.1 95.54 229.87 95.62 229.53 95.66 229.36 95.84 228.66 96.16 227.43 96.42 226.43 96.67 225.48 96.91 224.58 97.06 224.02 97.38 222.89 97.86 221.22 98.08 220.47 98.22 219.99 98.3 219.78 98.59 219.81 98.88 219.86 99.17 219.93 99.81 220.11 100.25 220.27 100.48 220.43 100.83 220.68 101.09 221.02 101.25 221.45 101.41 221.89 101.42 222.38 101.28 222.93 101.13 223.47 100.88 223.93 100.51 224.31 100.14 224.68 99.75 224.9 99.35 224.98 98.94 225.05 98.38 224.98 97.67 224.77L97.49 225.04C97.63 225.22 97.76 225.46 97.89 225.78 98.13 226.4 98.4 227.23 98.71 228.29L99.78 231.95C99.84 232.19 99.86 232.38 99.86 232.52 100.34 232.6 100.82 232.7 101.3 232.83 101.71 232.94 102.37 233.14 103.27 233.43L103.48 232.63C103.2 232.55 103.02 232.48 102.94 232.41 102.86 232.34 102.78 232.24 102.7 232.11 102.63 231.97 102.45 231.55 102.16 230.84 102.14 230.79 102.02 230.44 101.8 229.8L100.97 227.37C100.95 227.31 100.93 227.25 100.91 227.18 100.89 227.11 100.83 226.91 100.71 226.59 100.59 226.26 100.5 225.94 100.42 225.64 101.44 225.54 102.26 225.26 102.86 224.78 103.46 224.31 103.86 223.71 104.06 222.99 104.22 222.38 104.2 221.82 103.98 221.31 103.77 220.8 103.45 220.42 103.02 220.16 102.59 219.9 101.91 219.65 100.98 219.4 100.5 219.27 99.88 219.13 99.14 218.97 98.69 218.88 98.15 218.76 97.52 218.59 96.79 218.39 96.23 218.24 95.83 218.12 95.02 217.87 94.55 217.73 94.42 217.69L94.21 218.37M107.47 234.03C108.69 234.12 109.6 234.2 110.2 234.28 110.59 234.32 111.29 234.42 112.3 234.55 113.62 234.73 114.33 234.82 114.44 234.84 115.22 234.93 115.8 234.98 116.17 235 116.35 235 116.53 234.99 116.71 234.96 116.73 234.84 116.8 234.5 116.92 233.92L117.37 232.1C117.37 232.07 117.39 231.97 117.43 231.8L116.61 231.71C116.43 232.29 116.25 232.8 116.08 233.24 116 233.42 115.94 233.52 115.89 233.56 115.84 233.6 115.68 233.62 115.43 233.63 114.73 233.67 113.92 233.64 113.01 233.53 112.71 233.5 112.14 233.4 111.32 233.26 111.33 233.08 111.39 232.56 111.48 231.7 111.57 230.84 111.67 229.98 111.76 229.1 111.95 227.44 112.04 226.56 112.06 226.45 112.18 225.42 112.28 224.58 112.38 223.91 112.47 223.24 112.54 222.87 112.58 222.79 112.62 222.71 112.68 222.66 112.75 222.63 112.92 222.57 113.36 222.56 114.07 222.61L114.16 221.79C113.16 221.72 112.11 221.63 111 221.5 110.01 221.39 109.13 221.26 108.36 221.12L108.27 221.94C109.07 222.06 109.53 222.18 109.66 222.28 109.72 222.33 109.76 222.39 109.78 222.46 109.82 222.63 109.78 223.29 109.66 224.44 109.62 224.89 109.48 226.08 109.26 228.02 109.11 229.33 108.97 230.46 108.85 231.4 108.73 232.34 108.64 232.88 108.6 233.03 108.59 233.06 108.57 233.1 108.54 233.13 108.5 233.17 108.4 233.22 108.27 233.28 107.96 233.42 107.71 233.51 107.54 233.56L107.47 234.03M126.82 222.31C125.82 222.35 124.76 222.37 123.64 222.37 122.64 222.37 121.75 222.34 120.98 222.29L120.98 223.11C121.65 223.14 122.03 223.16 122.14 223.19 122.25 223.22 122.32 223.25 122.36 223.3 122.4 223.34 122.43 223.4 122.45 223.49 122.49 223.68 122.53 224.17 122.56 224.96 122.58 225.31 122.59 226.1 122.59 227.32L122.58 231.18C122.58 231.8 122.56 232.49 122.54 233.23 122.51 233.73 122.48 234.02 122.46 234.1 122.45 234.15 122.42 234.2 122.37 234.24 122.32 234.29 122.23 234.32 122.1 234.34 122 234.36 121.62 234.38 120.96 234.4L120.96 235.23C121.73 235.19 122.61 235.16 123.6 235.17 124.73 235.17 125.8 235.2 126.8 235.25L126.8 234.43C126.2 234.41 125.84 234.4 125.71 234.37 125.58 234.34 125.49 234.3 125.44 234.26 125.38 234.21 125.34 234.15 125.32 234.06 125.26 233.87 125.23 233.46 125.23 232.82L125.2 231.14 125.21 227.42C125.21 227.3 125.22 226.49 125.24 224.97 125.25 224.53 125.25 224.23 125.26 224.07 125.28 223.77 125.31 223.57 125.36 223.47 125.38 223.41 125.41 223.36 125.46 223.32 125.51 223.28 125.6 223.25 125.71 223.22 125.83 223.19 126.2 223.17 126.84 223.15L126.82 222.31M130.79 235.26C131.8 235.08 132.61 234.95 133.2 234.87 133.36 234.85 134.02 234.77 135.18 234.64L135.08 233.86C134.99 233.88 134.93 233.89 134.9 233.9 134.72 233.92 134.42 233.94 134.02 233.94 133.87 233.94 133.76 233.92 133.7 233.89 133.63 233.85 133.59 233.8 133.55 233.73 133.48 233.58 133.39 233.16 133.27 232.46 133.09 231.44 132.93 230.46 132.81 229.52L132.21 224.97C136.41 228.91 139.64 231.86 141.91 233.8 142.45 233.81 142.97 233.82 143.49 233.84L143.59 233.74C143.41 232.89 143.05 230.43 142.51 226.38 142.44 225.87 142.34 225.06 142.21 223.97 142.08 222.88 142.04 222.17 142.09 221.86 142.1 221.8 142.13 221.75 142.17 221.71 142.3 221.6 142.73 221.49 143.48 221.37L143.37 220.55C142.46 220.72 141.71 220.84 141.12 220.92 140.51 221.01 139.82 221.07 139.07 221.12L139.18 221.94C139.99 221.85 140.48 221.84 140.63 221.94 140.72 221.99 140.8 222.13 140.85 222.35 141 222.92 141.29 224.84 141.72 228.11L141.96 230.22C141 229.46 139.77 228.39 138.28 227.01 136.21 225.1 134.43 223.41 132.96 221.93L132.12 222.08 130.8 222.29C130.44 222.34 129.86 222.39 129.08 222.45L129.19 223.27C129.84 223.23 130.23 223.22 130.37 223.23 130.51 223.25 130.61 223.29 130.67 223.34 130.74 223.4 130.79 223.49 130.84 223.62 130.89 223.75 130.95 224.04 131.01 224.48L131.4 227.12 131.78 230.04C131.89 230.85 131.96 231.5 132 232.01 132.07 232.91 132.09 233.47 132.08 233.7 132.07 233.87 132.05 233.99 132.01 234.05 131.97 234.11 131.92 234.16 131.86 234.19 131.76 234.23 131.36 234.32 130.66 234.45L130.79 235.26ZM158.68 219.73C158.38 218.39 158.21 217.45 158.18 216.89L158.05 216.75C157.5 216.69 156.77 216.71 155.85 216.8 154.93 216.89 153.98 217.1 152.98 217.42 152.17 217.68 151.45 217.99 150.82 218.34 150.19 218.7 149.61 219.13 149.1 219.65 148.59 220.17 148.17 220.76 147.85 221.43 147.53 222.1 147.34 222.82 147.29 223.59 147.24 224.37 147.36 225.21 147.66 226.13 148.01 227.22 148.54 228.15 149.24 228.9 149.68 229.39 150.24 229.8 150.9 230.14 151.56 230.48 152.3 230.69 153.11 230.78 154.26 230.9 155.5 230.75 156.81 230.33 157.62 230.07 158.4 229.73 159.16 229.3 159.92 228.87 160.78 228.29 161.73 227.54 161.56 227.08 161.4 226.63 161.26 226.18 161.17 225.89 161.02 225.4 160.83 224.72 160.76 224.46 160.74 224.28 160.77 224.21 160.84 224.05 161.04 223.88 161.36 223.7L161.17 223.12 158.54 224.04 155.88 224.82 156.11 225.54C157.04 225.3 157.61 225.17 157.84 225.17 157.97 225.16 158.07 225.18 158.13 225.24 158.21 225.33 158.34 225.66 158.52 226.22 158.55 226.31 158.63 226.59 158.77 227.03 158.91 227.48 159 227.79 159.04 227.95 158.73 228.23 158.41 228.48 158.06 228.69 157.72 228.9 157.34 229.07 156.95 229.19 155.59 229.63 154.28 229.48 153.01 228.75 151.74 228.02 150.83 226.79 150.27 225.04 149.76 223.44 149.8 222.04 150.38 220.85 150.97 219.65 152 218.82 153.47 218.34 154.1 218.14 154.68 218.03 155.23 218.02 155.78 218 156.28 218.07 156.75 218.2 156.96 218.26 157.16 218.35 157.37 218.48 157.47 218.65 157.57 218.86 157.67 219.11 157.81 219.47 157.92 219.75 157.98 219.94L158.68 219.73M169.18 225.08C170.16 224.52 171.04 224.05 171.81 223.65 172.53 223.28 173.43 222.84 174.51 222.35L174.17 221.68C173.51 221.99 173.1 222.14 172.94 222.14 172.78 222.14 172.65 222.07 172.53 221.95 172.34 221.74 171.94 221.04 171.33 219.86L168.8 214.92C168.13 213.61 167.75 212.85 167.67 212.65L168.83 212.06C169.45 211.74 169.99 211.49 170.46 211.31 170.6 211.25 170.7 211.22 170.75 211.23 170.81 211.25 170.9 211.35 171.04 211.54 171.3 211.9 171.55 212.3 171.78 212.72L172.51 212.34C171.93 211.17 171.63 210.56 171.62 210.51 171.5 210.25 171.38 209.94 171.26 209.58L171.13 209.54C170.88 209.69 170.64 209.84 170.39 209.98 169.93 210.23 169.01 210.71 167.63 211.42L164.31 213.12C162.97 213.81 162.06 214.27 161.58 214.5 161.28 214.64 161 214.76 160.73 214.88L160.7 215C160.88 215.26 161.04 215.51 161.19 215.74 161.27 215.88 161.61 216.51 162.21 217.62L162.94 217.24C162.7 216.75 162.52 216.3 162.39 215.87 162.34 215.7 162.32 215.58 162.34 215.53 162.35 215.49 162.44 215.42 162.61 215.31 163.03 215.04 163.53 214.76 164.12 214.46L165.28 213.87C165.38 214.02 165.78 214.77 166.47 216.11L169 221.05C169.63 222.23 169.97 222.95 170.03 223.21 170.06 223.39 170.04 223.54 169.94 223.67 169.85 223.8 169.48 224.05 168.82 224.41L169.18 225.08M176.96 213.79C177.83 214.96 178.78 215.78 179.82 216.23 180.86 216.68 181.92 216.82 183.02 216.63 184.12 216.44 185.23 215.94 186.34 215.12 187.37 214.36 188.16 213.52 188.72 212.59 189.12 211.91 189.38 211.17 189.5 210.37 189.62 209.57 189.58 208.79 189.38 208.02 189.11 206.98 188.63 206 187.95 205.07 187.54 204.52 187.11 204.06 186.67 203.68 186.22 203.31 185.75 203.01 185.25 202.79 184.75 202.57 184.16 202.43 183.47 202.38 182.78 202.32 182.09 202.4 181.41 202.61 180.49 202.9 179.58 203.38 178.68 204.04 177.77 204.71 177.04 205.46 176.46 206.29 176.01 206.94 175.71 207.69 175.55 208.54 175.39 209.39 175.42 210.25 175.64 211.13 175.84 211.99 176.29 212.88 176.96 213.79M178.91 211.66C178.32 210.86 177.89 210.04 177.63 209.2 177.37 208.36 177.37 207.59 177.62 206.87 177.88 206.15 178.37 205.53 179.09 205 179.72 204.53 180.31 204.26 180.86 204.19 181.4 204.12 181.96 204.18 182.54 204.38 183.12 204.58 183.7 204.9 184.28 205.37 184.85 205.83 185.4 206.41 185.91 207.11 186.66 208.12 187.16 209.09 187.4 210 187.64 210.92 187.63 211.71 187.36 212.37 187.08 213.03 186.63 213.59 186.01 214.06 185.33 214.56 184.63 214.84 183.9 214.89 183.17 214.95 182.37 214.71 181.5 214.19 180.63 213.66 179.76 212.82 178.91 211.66M195.32 207.58C195.99 206.8 196.53 206.19 196.95 205.76 197.06 205.64 197.53 205.17 198.35 204.33L197.78 203.79C197.72 203.86 197.68 203.9 197.66 203.93 197.53 204.06 197.31 204.26 197 204.52 196.89 204.61 196.79 204.67 196.72 204.68 196.65 204.69 196.58 204.68 196.51 204.65 196.36 204.58 196.02 204.31 195.49 203.84 194.71 203.17 193.97 202.5 193.28 201.85L189.94 198.7C195.69 199.11 200.06 199.36 203.04 199.44 203.46 199.11 203.88 198.79 204.3 198.48L204.32 198.34C203.64 197.79 201.81 196.11 198.84 193.3 198.46 192.94 197.88 192.38 197.09 191.62 196.3 190.86 195.83 190.34 195.67 190.06 195.64 190 195.63 189.95 195.64 189.89 195.67 189.73 195.94 189.36 196.44 188.81L195.84 188.24C195.24 188.95 194.73 189.52 194.33 189.94 193.9 190.39 193.41 190.87 192.86 191.39L193.46 191.95C194.03 191.37 194.41 191.06 194.59 191.03 194.7 191.01 194.84 191.07 195.02 191.21 195.5 191.56 196.93 192.86 199.33 195.13L200.85 196.62C199.62 196.64 197.99 196.58 195.97 196.45 193.16 196.28 190.71 196.08 188.64 195.86L188.08 196.5 187.18 197.5C186.93 197.77 186.52 198.17 185.94 198.71L186.54 199.27C187.02 198.83 187.31 198.57 187.43 198.5 187.55 198.42 187.65 198.39 187.74 198.39 187.83 198.39 187.93 198.43 188.05 198.5 188.17 198.57 188.39 198.76 188.72 199.06L190.69 200.87 192.83 202.89C193.42 203.45 193.89 203.91 194.24 204.28 194.85 204.93 195.23 205.35 195.37 205.54 195.47 205.68 195.53 205.78 195.54 205.86 195.55 205.93 195.54 206 195.51 206.06 195.46 206.16 195.21 206.48 194.74 207.02L195.32 207.58ZM31.49 112.57C31.4 113.3 31.32 113.72 31.23 113.86 31.14 113.99 31.02 114.07 30.85 114.1 30.57 114.15 29.77 114.12 28.44 114.01L22.91 113.55C21.44 113.43 20.6 113.35 20.38 113.31 20.47 112.28 20.53 111.24 20.71 110.23 20.74 110.08 20.76 109.98 20.8 109.95 20.85 109.91 20.98 109.88 21.21 109.86 21.66 109.83 22.12 109.83 22.61 109.86L22.68 109.04C21.38 108.91 20.71 108.84 20.66 108.83 20.38 108.79 20.05 108.73 19.68 108.64L19.58 108.73C19.58 109.02 19.57 109.31 19.56 109.59 19.53 110.11 19.45 111.15 19.32 112.7L19.01 116.42C18.88 117.92 18.79 118.94 18.74 119.46 18.7 119.79 18.66 120.09 18.61 120.38L18.7 120.47C19.02 120.45 19.31 120.44 19.59 120.45 19.75 120.46 20.46 120.5 21.73 120.58L21.8 119.76C21.26 119.7 20.78 119.62 20.35 119.5 20.17 119.46 20.07 119.41 20.03 119.36 20 119.33 19.99 119.21 19.99 119.01 19.98 118 20.09 116.99 20.18 115.99 20.36 115.98 21.2 116.04 22.71 116.16L28.24 116.62C29.57 116.71 30.36 116.8 30.62 116.89 30.79 116.95 30.9 117.06 30.97 117.2 31.03 117.35 31.04 117.79 31.01 118.54L31.76 118.6C31.81 117.47 31.86 116.48 31.94 115.61 32.01 114.8 32.11 113.81 32.26 112.63L31.49 112.57Z" fill="#FFFFFF"/></g></svg>